<?xml version="1.0" standalone="no"?>
<!DOCTYPE svg PUBLIC "-//W3C//DTD SVG 20010904//EN"
 "http://www.w3.org/TR/2001/REC-SVG-20010904/DTD/svg10.dtd">
<svg version="1.0" xmlns="http://www.w3.org/2000/svg"
 width="592.000000pt" height="592.000000pt" viewBox="0 0 592.000000 592.000000"
 preserveAspectRatio="xMidYMid meet">
<metadata>
Created by potrace 1.14, written by Peter Selinger 2001-2017
</metadata>
<g transform="translate(0.000000,592.000000) scale(0.100000,-0.100000)"
fill="#000000" stroke="none">
<path d="M2599 4478 c-5 -19 -8 -50 -4 -46 7 7 15 48 9 48 -2 0 -4 -1 -5 -2z"/>
<path d="M2460 4453 c13 -28 27 -37 27 -18 0 8 -3 13 -5 10 -3 -3 -11 3 -19
13 -13 15 -13 15 -3 -5z"/>
<path d="M2550 4460 c-12 -7 -10 -9 7 -7 12 0 19 5 17 9 -6 10 -6 10 -24 -2z"/>
<path d="M2730 4466 c0 -2 7 -7 16 -10 8 -3 12 -2 9 4 -6 10 -25 14 -25 6z"/>
<path d="M2645 4450 c6 -10 4 -12 -11 -6 -15 6 -17 5 -6 -5 9 -9 15 -10 23 -2
8 8 7 13 -2 18 -8 6 -10 4 -4 -5z"/>
<path d="M2670 4440 c-8 -15 -19 -19 -49 -16 -21 2 -44 6 -50 10 -7 4 -18 2
-27 -4 -19 -16 -71 -22 -79 -10 -4 6 -14 6 -28 -2 -27 -14 -69 -19 -62 -8 3 5
13 7 23 4 14 -5 15 -4 2 5 -11 8 -19 7 -30 -7 -9 -9 -20 -18 -25 -19 -93 -15
-129 -24 -145 -36 -13 -10 -13 -10 -2 5 11 13 11 18 0 24 -7 4 -10 4 -6 0 12
-14 -27 -47 -47 -40 -14 6 -16 4 -10 -6 6 -10 4 -11 -6 -4 -20 12 -47 15 -53
5 -3 -4 6 -7 19 -5 14 1 25 -2 25 -7 0 -5 -4 -10 -10 -10 -19 -3 -25 -5 -49
-18 -14 -8 -21 -9 -17 -2 4 6 2 11 -3 11 -6 0 -11 -6 -11 -14 0 -9 -10 -12
-32 -10 -23 3 -29 1 -18 -5 8 -6 18 -7 24 -4 5 3 6 1 2 -5 -4 -7 -18 -9 -32
-6 -15 4 -24 2 -24 -6 0 -6 5 -8 10 -5 6 3 10 4 10 2 0 -12 -106 -71 -122 -69
-10 2 -18 -2 -18 -8 0 -6 5 -8 10 -5 6 3 10 1 10 -4 0 -10 -14 -15 -32 -12 -5
0 -8 -4 -8 -10 0 -6 -7 -17 -15 -25 -8 -9 -15 -11 -15 -5 0 6 -5 11 -11 11 -5
0 -7 -5 -4 -11 4 -6 -2 -19 -13 -29 -15 -14 -22 -16 -25 -7 -3 7 -6 3 -6 -9
-1 -30 -34 -57 -50 -41 -10 9 -11 8 -6 -5 5 -12 -3 -29 -21 -50 -15 -18 -25
-25 -21 -15 3 9 2 17 -3 17 -6 0 -10 -11 -10 -24 0 -14 -4 -28 -10 -31 -6 -3
-7 1 -4 12 5 15 4 15 -5 3 -5 -9 -11 -22 -13 -30 -2 -8 -11 -23 -21 -32 -10
-9 -18 -19 -17 -22 1 -4 0 -10 -3 -14 -2 -4 -2 0 0 8 3 11 1 12 -7 4 -6 -6
-12 -21 -13 -33 -1 -11 -5 -21 -10 -21 -4 0 -5 -5 -2 -10 3 -6 -1 -13 -9 -16
-9 -3 -13 -10 -10 -15 5 -9 -15 -13 -46 -10 -11 1 -11 -1 3 -9 9 -6 22 -8 28
-4 6 4 6 -3 -2 -17 -7 -13 -12 -28 -11 -33 2 -5 -5 -3 -14 5 -16 13 -16 12 -4
-11 13 -25 13 -25 -7 -7 -19 17 -21 17 -34 0 -13 -16 -12 -17 3 -5 22 17 32 0
18 -30 -11 -22 -10 -22 4 -4 9 11 16 15 16 10 0 -6 -3 -14 -7 -18 -4 -3 -8
-14 -9 -22 -1 -9 -6 -23 -10 -32 -9 -22 -11 -29 -13 -48 0 -8 -6 -12 -11 -9
-8 5 -7 11 1 21 7 9 8 14 1 14 -18 0 -20 -24 -4 -42 10 -13 11 -18 3 -18 -7 0
-9 -5 -5 -12 4 -7 3 -8 -4 -4 -7 4 -12 2 -12 -3 0 -6 4 -11 9 -11 5 0 7 -9 4
-20 -3 -11 -9 -17 -14 -14 -5 3 -7 10 -4 15 4 5 1 9 -4 9 -16 0 -13 -16 4 -30
8 -7 13 -22 11 -34 -3 -11 -5 -24 -5 -28 -1 -5 -8 -8 -16 -8 -8 0 -15 -4 -15
-10 0 -5 7 -7 15 -4 8 4 15 1 15 -5 0 -6 -6 -11 -14 -11 -8 0 -17 -4 -20 -9
-4 -5 3 -7 14 -4 12 3 20 0 20 -6 0 -7 -5 -9 -12 -5 -9 5 -9 2 1 -9 9 -11 10
-21 4 -29 -11 -15 -11 -227 1 -246 4 -6 2 -12 -3 -12 -6 0 -11 5 -11 12 0 6
-3 8 -7 4 -5 -4 -1 -13 7 -19 16 -13 24 -77 9 -77 -5 0 -9 -5 -9 -10 0 -6 5
-9 11 -8 18 5 20 -52 2 -59 -13 -5 -12 -8 7 -15 19 -7 22 -13 17 -43 -3 -19
-2 -35 3 -35 4 0 7 -8 5 -17 -1 -10 2 -24 8 -30 6 -9 6 -13 -2 -13 -6 0 -12 5
-12 10 -1 6 -2 14 -3 19 0 5 -4 12 -8 16 -8 8 -5 -10 6 -43 4 -13 12 -20 19
-15 9 5 9 3 0 -8 -8 -10 -9 -19 -1 -29 8 -12 9 -12 4 3 -4 11 -2 16 5 12 6 -4
8 -13 5 -21 -3 -7 -1 -16 4 -19 5 -3 7 -17 4 -31 -3 -14 -1 -23 4 -20 5 3 9 0
10 -7 5 -40 9 -54 16 -65 4 -7 2 -19 -5 -28 -10 -12 -9 -13 7 -7 16 6 17 5 6
-9 -11 -14 -10 -17 5 -20 12 -2 14 -6 6 -11 -7 -4 -21 2 -33 15 -18 20 -20 20
-14 4 6 -15 4 -17 -7 -11 -8 5 -11 4 -6 0 4 -5 14 -10 22 -12 8 -2 23 -4 32
-6 9 -2 18 -10 19 -18 2 -8 6 -25 9 -39 12 -49 12 -55 4 -72 -6 -11 -5 -18 4
-21 9 -4 9 -6 -1 -6 -7 -1 -11 -5 -8 -9 3 -5 -1 -9 -9 -9 -18 0 -20 13 -2 20
9 4 9 6 0 6 -21 2 -26 -22 -8 -36 11 -7 13 -13 6 -13 -7 0 -10 -4 -7 -9 3 -5
0 -11 -7 -13 -17 -7 -38 2 -32 12 3 5 1 11 -4 14 -10 7 -9 -13 2 -30 9 -15 -1
-24 -19 -17 -8 3 -14 -1 -14 -11 0 -9 -3 -15 -7 -14 -5 1 -19 -4 -31 -11 -13
-7 -26 -10 -29 -7 -4 3 -13 0 -21 -7 -13 -10 -14 -9 -7 2 6 11 4 13 -9 8 -13
-5 -17 -3 -13 6 3 8 -1 14 -9 14 -12 0 -11 -5 2 -25 14 -21 14 -24 1 -19 -8 3
-20 0 -26 -6 -6 -6 -11 -8 -11 -4 0 3 -12 2 -26 -3 -19 -8 -23 -7 -18 3 4 6
-1 5 -12 -4 -19 -16 -30 -19 -86 -20 -16 -1 -28 -5 -28 -9 0 -5 -14 -7 -30 -5
-18 3 -28 0 -25 -5 11 -18 -14 -10 -25 8 -11 16 -11 16 -6 0 3 -10 2 -18 -2
-19 -4 0 -18 -2 -31 -5 -20 -4 -22 -2 -11 11 8 9 8 15 2 15 -6 0 -14 -9 -17
-20 -4 -12 -14 -20 -23 -18 -9 1 -23 -1 -29 -5 -7 -4 -21 -3 -32 3 -28 14 -38
13 -17 -3 17 -13 16 -14 -12 -26 -21 -9 -33 -22 -37 -42 -4 -19 -11 -27 -18
-22 -16 10 45 -67 73 -92 12 -11 25 -19 29 -19 18 4 51 -17 45 -28 -6 -9 -9
-9 -12 0 -5 16 -19 15 -19 -2 0 -16 19 -15 40 2 16 14 33 0 22 -18 -3 -6 1 -7
9 -4 9 3 13 11 9 18 -5 8 -2 7 8 -1 8 -6 27 -14 42 -17 49 -9 69 -18 64 -29
-3 -7 5 -12 18 -12 13 0 21 4 17 9 -3 5 2 6 12 3 10 -4 20 -7 22 -7 3 0 2 -5
-1 -10 -3 -5 -1 -10 5 -10 6 0 9 -4 6 -8 -2 -4 4 -8 14 -8 10 0 18 3 18 6 -1
18 4 19 18 5 13 -13 19 -14 25 -4 6 11 14 10 41 -2 18 -8 43 -14 56 -13 16 1
21 -3 18 -12 -7 -18 7 -25 24 -12 12 8 12 9 -3 4 -11 -3 -16 -2 -12 4 3 6 18
7 33 4 36 -9 37 -11 22 -29 -8 -10 -9 -15 -1 -15 6 0 11 5 11 11 0 5 4 8 9 4
5 -3 12 -1 16 4 7 13 46 5 57 -11 5 -9 8 -10 8 -1 0 6 9 11 20 10 13 -1 19 -6
15 -16 -5 -12 -3 -12 12 0 11 9 14 10 9 2 -4 -7 -2 -13 3 -13 6 0 11 5 11 11
0 6 5 7 13 2 6 -4 26 -8 42 -10 79 -7 89 -9 93 -20 2 -7 8 -13 13 -13 6 0 8 4
5 8 -3 5 9 7 27 6 42 -2 41 -2 27 -19 -11 -13 -10 -14 4 -9 9 3 16 11 16 16 0
6 8 4 17 -3 9 -8 14 -9 11 -4 -4 6 2 11 13 11 10 0 19 -6 19 -13 0 -6 4 -15
10 -18 5 -3 7 0 5 7 -4 10 4 14 29 13 19 0 38 -4 43 -9 5 -5 2 -6 -5 -1 -11 6
-12 3 -3 -14 14 -26 19 -27 17 -4 -2 25 97 26 126 2 17 -15 48 -16 48 -2 0 3
-7 3 -15 0 -8 -4 -16 -3 -19 1 -3 4 11 8 30 9 19 0 34 -4 34 -9 0 -5 -4 -6
-10 -3 -6 4 -7 -1 -3 -11 5 -15 7 -14 17 3 10 16 36 22 64 13 4 -1 69 -3 145
-4 110 -1 140 -4 148 -16 10 -13 10 -13 6 1 -4 13 5 15 53 15 32 -1 56 -5 52
-10 -3 -5 1 -5 9 0 16 11 99 13 99 3 0 -4 7 -10 16 -13 13 -5 14 -4 6 7 -9 10
-8 14 3 14 8 0 16 -4 16 -9 1 -4 2 -12 3 -17 3 -21 13 -20 12 1 -1 21 3 23 47
23 26 0 47 3 47 6 0 3 7 6 15 6 20 0 19 -7 -2 -24 -17 -13 -16 -13 3 -4 12 6
33 8 47 6 14 -3 28 -1 31 4 3 4 -6 7 -19 5 -14 -1 -27 1 -29 5 -3 4 22 7 55 7
45 0 58 -3 55 -13 -3 -7 -1 -13 4 -13 6 0 10 8 10 18 0 15 8 18 49 18 27 0 48
-4 45 -8 -3 -4 3 -5 12 -1 10 4 15 2 11 -4 -3 -5 0 -10 8 -10 13 0 13 3 0 17
-13 15 -13 17 0 17 8 0 15 -4 15 -9 0 -4 5 -8 11 -8 5 0 7 5 4 10 -4 6 -3 10
2 9 4 -1 10 0 13 1 3 1 16 3 30 5 14 1 33 6 43 10 9 4 17 3 17 -3 0 -19 52
-10 57 9 3 11 10 19 15 19 5 0 6 -6 2 -12 -4 -7 2 -4 14 6 12 11 22 16 22 11
0 -4 7 -2 15 5 16 13 20 6 16 -30 -2 -13 0 -13 8 -1 5 8 7 20 4 28 -5 13 7 17
36 14 7 -2 10 2 7 7 -3 6 2 9 11 8 10 -2 24 3 31 11 8 7 17 11 22 8 5 -3 11
-1 15 5 4 7 13 6 27 -1 13 -7 18 -7 14 -1 -3 6 -2 13 4 17 5 3 10 1 10 -4 0
-6 8 -11 18 -10 10 0 12 3 5 6 -7 2 -13 10 -13 15 0 6 3 8 7 5 3 -4 13 -1 21
6 13 10 14 8 8 -13 -4 -14 -4 -20 1 -14 4 6 16 13 26 17 9 3 17 14 17 24 0 13
3 14 12 5 8 -8 8 -15 -2 -27 -7 -8 -9 -15 -5 -15 4 0 1 -8 -6 -17 -13 -16 -12
-17 3 -4 10 7 16 17 13 21 -3 5 -1 12 5 15 6 4 8 16 4 27 -4 14 -3 18 6 13 6
-4 20 1 31 11 10 9 19 14 19 9 0 -4 7 -2 15 5 8 7 15 9 15 4 0 -5 4 -4 8 1 11
16 73 48 79 41 3 -3 12 2 20 12 13 16 13 16 11 -2 -2 -12 4 -20 16 -22 14 -2
16 0 7 9 -16 16 -14 27 5 27 9 0 12 5 8 11 -4 7 -1 10 7 7 8 -3 20 1 27 9 7 7
22 13 33 13 10 0 18 3 18 8 -3 20 3 23 18 11 10 -8 14 -9 10 -2 -4 6 -3 14 2
17 5 4 12 -2 14 -11 3 -11 5 -7 6 11 1 27 2 28 19 9 9 -10 14 -14 10 -9 -14
18 -9 36 9 29 10 -4 14 -2 10 4 -4 6 0 16 8 23 8 7 15 9 15 4 0 -5 7 1 15 13
10 15 22 20 33 16 9 -3 14 -3 10 2 -12 13 12 35 37 35 12 0 29 7 36 17 13 15
12 15 -11 4 -24 -11 -24 -11 -5 4 11 8 25 13 32 11 8 -3 10 1 6 12 -6 15 -4
15 9 4 14 -11 16 -11 12 5 -2 11 6 25 22 37 l26 18 -13 -23 c-11 -22 -11 -23
4 -10 10 7 17 21 17 31 0 17 29 50 45 50 5 0 -1 -9 -13 -20 -12 -12 -22 -26
-22 -33 0 -7 5 -4 11 6 6 9 15 14 21 11 7 -4 8 -2 4 4 -4 7 -2 12 4 12 6 0 10
10 8 23 -2 13 2 21 10 19 6 -1 12 3 12 8 0 6 6 5 14 -2 8 -7 11 -17 8 -23 -3
-5 -1 -6 3 -2 12 10 15 38 4 31 -5 -3 -9 2 -9 11 0 11 5 15 14 12 8 -3 20 2
28 11 12 16 11 16 -7 2 -17 -13 -16 -11 4 18 25 36 31 38 51 20 8 -7 7 -4 -3
8 -17 20 -16 22 20 55 21 19 47 33 58 32 11 -2 14 0 8 3 -15 7 -18 34 -4 34 5
0 12 -6 15 -12 3 -7 3 -2 0 11 -4 16 -3 21 5 17 6 -4 11 -3 11 3 0 6 10 20 23
32 12 12 15 18 7 14 -12 -6 -13 -5 -3 5 10 11 17 10 35 -5 13 -11 17 -13 11
-5 -16 18 -17 34 -1 24 7 -4 8 -3 4 4 -4 6 -14 8 -24 5 -15 -6 -15 -5 -2 8 8
8 23 18 33 22 9 3 17 12 17 19 0 9 -3 8 -10 -2 -6 -9 -10 -10 -10 -3 0 7 7 16
16 21 9 5 17 13 17 18 1 5 6 8 11 6 5 -2 6 4 3 11 -3 8 8 30 23 48 16 19 29
39 30 44 1 19 57 94 65 87 5 -4 5 1 1 12 -5 14 -3 17 10 12 15 -6 15 -4 3 11
-9 11 -10 14 -1 9 7 -4 12 -1 12 9 0 9 4 13 10 10 6 -3 7 1 4 9 -3 9 -1 16 5
16 6 0 11 -4 11 -10 0 -5 5 -10 12 -10 7 0 5 7 -5 18 -23 26 -7 48 24 32 21
-10 22 -10 7 3 -20 16 -24 37 -7 37 5 0 7 -5 3 -12 -4 -7 -3 -8 5 -4 9 6 9 11
-1 24 -11 13 -11 14 1 7 11 -6 13 -4 8 7 -3 10 3 19 18 26 17 8 22 16 18 32
-4 13 2 29 16 44 12 12 18 26 14 31 -5 4 -2 5 5 1 7 -4 10 -12 7 -17 -4 -5 -2
-9 4 -9 5 0 8 12 7 28 -3 16 4 37 15 51 10 13 19 19 19 13 0 -6 -7 -18 -16
-26 -8 -9 -12 -16 -7 -16 16 0 33 24 33 47 0 13 5 23 11 23 5 0 7 5 4 10 -3 6
4 14 17 19 13 6 19 10 14 10 -13 1 45 61 58 61 6 0 4 -5 -4 -11 -13 -9 -13
-10 0 -6 8 2 15 11 15 20 0 9 6 22 13 29 9 9 12 9 12 -4 0 -21 16 -32 26 -17
4 8 3 9 -4 5 -8 -5 -11 2 -10 20 2 19 11 31 33 40 16 7 26 13 22 14 -5 0 -2 6
5 14 7 7 20 23 28 35 9 13 22 19 36 17 17 -3 21 -1 17 11 -5 12 -7 12 -14 1
-7 -10 -9 -9 -9 5 0 9 5 17 11 17 5 0 7 5 4 10 -3 6 -1 10 4 10 6 0 11 -7 11
-15 0 -18 16 -20 26 -3 4 6 3 8 -2 5 -6 -3 -15 3 -22 13 -9 15 -8 22 4 35 12
11 12 15 2 15 -10 0 -11 2 0 8 8 5 10 16 5 28 -6 17 -5 18 13 4 13 -10 12 -7
-4 12 -18 20 -22 32 -16 50 13 39 12 46 -5 41 -9 -2 -27 8 -41 23 -19 21 -21
26 -7 21 12 -4 16 -3 11 4 -3 6 -17 8 -29 5 -13 -3 -27 -1 -30 4 -4 6 -10 8
-15 5 -5 -3 -11 -1 -15 5 -4 6 -11 8 -16 5 -16 -11 -10 4 11 23 16 14 17 19 5
19 -8 0 -15 -4 -15 -9 0 -5 -5 -6 -12 -2 -6 4 -8 3 -4 -4 14 -23 -12 -20 -32
3 -12 14 -19 25 -17 25 3 0 1 10 -6 21 -8 15 -8 19 0 15 6 -4 12 -2 12 3 2 14
6 30 9 34 1 1 3 9 5 18 2 12 -2 15 -18 11 -20 -5 -20 -6 -2 -12 13 -5 15 -9 7
-14 -7 -4 -10 -12 -7 -17 4 -5 1 -9 -4 -9 -12 0 -13 5 -15 102 -1 39 2 64 8
61 5 -4 6 1 2 12 -5 13 3 32 24 61 16 23 31 52 33 64 2 12 9 25 16 29 10 6 9
10 -4 14 -17 7 -17 37 0 49 6 4 2 8 -7 8 -16 0 -19 5 -18 25 1 8 -27 35 -36
35 -4 0 -13 8 -21 18 -8 9 -12 12 -9 5 4 -8 -2 -9 -21 -4 -16 5 -27 14 -25 20
1 7 -2 10 -8 6 -6 -3 -8 -10 -5 -15 3 -4 -6 -11 -20 -14 -25 -6 -75 -53 -75
-70 0 -5 -8 -15 -17 -23 -10 -8 -13 -12 -7 -9 6 3 11 -1 11 -9 0 -8 -3 -13 -6
-12 -3 2 -18 -10 -33 -25 -15 -15 -21 -28 -15 -28 7 0 18 9 25 20 14 23 28 26
29 8 0 -7 2 -17 3 -23 5 -21 0 -36 -10 -30 -6 4 -8 16 -5 28 5 18 4 19 -5 5
-11 -17 -4 -48 11 -48 5 0 9 -7 9 -15 0 -8 -5 -15 -12 -15 -6 0 -9 -2 -6 -5 3
-3 12 -3 21 1 13 4 14 10 7 24 -7 13 -7 21 0 25 5 3 10 -2 10 -13 0 -10 3 -22
7 -26 10 -9 11 -96 2 -96 -10 0 -20 30 -13 41 3 5 0 9 -5 9 -20 0 -11 -39 11
-54 12 -9 17 -16 11 -16 -7 0 -10 -16 -8 -40 1 -22 -1 -43 -6 -45 -4 -3 -6
-14 -4 -25 3 -13 0 -18 -7 -14 -7 5 -9 1 -5 -9 5 -12 -3 -21 -26 -32 -28 -14
-30 -14 -13 -1 24 20 13 34 -11 15 -10 -7 -15 -9 -11 -5 4 5 0 15 -10 22 -11
9 -13 13 -4 14 7 0 10 5 7 10 -4 6 -12 7 -18 4 -7 -4 -9 -4 -5 1 4 4 2 15 -5
23 -9 13 -9 14 1 8 6 -4 12 -4 13 1 0 4 2 18 5 29 2 12 -2 27 -10 33 -9 8 -13
7 -13 -4 0 -8 4 -12 9 -9 4 3 8 0 8 -5 0 -6 -6 -11 -12 -11 -9 0 -8 -4 2 -11
13 -9 13 -10 0 -6 -8 2 -16 13 -16 25 -1 12 -3 23 -4 25 -8 7 -18 130 -11 142
17 32 16 93 -3 137 -4 9 -4 22 0 29 4 7 3 9 -3 6 -6 -4 -24 0 -39 8 -16 8 -37
15 -46 15 -12 0 -16 6 -13 21 3 12 1 18 -3 15 -4 -4 -7 -13 -7 -19 0 -7 -13
-11 -28 -10 -15 1 -25 -2 -22 -8 4 -5 2 -9 -4 -9 -5 0 -12 6 -14 13 -3 7 -6 5
-6 -5 -1 -11 -6 -15 -15 -12 -8 3 -17 0 -22 -7 -5 -8 -3 -10 7 -4 12 8 12 6 0
-8 -18 -22 -35 -22 -26 1 5 13 4 14 -6 5 -9 -9 -9 -16 -1 -26 8 -9 8 -17 2
-23 -6 -6 -11 -28 -12 -50 0 -21 -4 -43 -8 -49 -4 -5 -3 -19 1 -30 8 -17 9
-16 5 5 -5 24 -4 24 9 6 14 -18 19 -39 16 -59 -1 -5 3 -6 9 -2 6 3 7 12 3 18
-3 7 3 3 15 -7 12 -11 22 -25 22 -31 0 -7 7 -18 15 -25 9 -7 13 -15 11 -18 -3
-2 -1 -14 5 -24 8 -15 8 -23 -2 -32 -9 -8 -10 -7 -5 9 6 16 5 17 -5 8 -10 -10
-9 -16 3 -30 8 -10 13 -24 11 -30 -3 -7 0 -13 5 -13 11 0 11 18 -1 38 -5 7 -4
12 2 12 11 0 12 -3 15 -37 1 -10 5 -24 9 -30 5 -7 6 -17 2 -22 -3 -5 -1 -12 4
-15 14 -9 7 -39 -10 -44 -11 -3 -11 -1 1 7 13 10 13 11 0 11 -13 0 -13 1 0 10
11 7 12 10 2 10 -9 0 -11 7 -7 19 3 11 0 23 -6 27 -8 4 -9 3 -5 -4 4 -6 2 -20
-3 -30 -7 -13 -7 -22 1 -30 9 -9 9 -12 1 -12 -7 0 -15 5 -18 10 -3 6 -12 10
-18 10 -7 0 -4 -5 5 -11 15 -8 16 -13 6 -29 -7 -10 -17 -16 -23 -13 -5 4 -2
-3 8 -14 18 -21 14 -35 -9 -26 -10 4 -12 0 -8 -11 10 -26 -4 -18 -21 12 -15
24 -13 13 3 -28 5 -13 4 -13 -12 0 -16 12 -19 12 -27 -2 -6 -10 -18 -15 -31
-13 -11 3 -18 1 -14 -2 14 -14 40 -11 53 5 7 9 13 12 13 6 0 -14 -35 -46 -43
-38 -3 3 -14 1 -24 -6 -17 -11 -17 -11 0 -6 11 3 15 2 12 -4 -3 -6 -13 -10
-21 -10 -8 0 -13 -3 -13 -7 3 -20 -2 -24 -16 -13 -13 11 -14 10 -10 -2 8 -21
-27 -61 -56 -63 -19 -1 -23 -7 -21 -25 3 -15 0 -20 -8 -15 -14 8 -41 -25 -35
-42 2 -7 -3 -16 -11 -21 -9 -5 -15 -12 -15 -16 3 -12 -26 -35 -34 -28 -5 4 -5
-1 -1 -12 5 -15 2 -17 -13 -13 -10 2 -25 0 -32 -5 -11 -8 -10 -9 3 -5 9 3 19
0 21 -8 6 -14 -26 -49 -36 -39 -3 3 -5 -2 -5 -13 2 -20 -40 -83 -54 -83 -5 0
-7 -4 -4 -9 13 -21 -55 -56 -74 -38 -7 7 -5 0 4 -15 10 -16 13 -29 7 -32 -5
-4 -13 -1 -17 5 -5 8 -3 9 6 4 8 -5 11 -4 6 3 -4 6 -14 8 -23 5 -11 -4 -13 -8
-5 -11 22 -7 12 -23 -10 -17 -23 7 -23 7 -3 -9 19 -15 19 -16 1 -9 -14 5 -17
3 -11 -7 5 -8 4 -11 -3 -6 -5 3 -13 0 -16 -6 -3 -7 -3 -3 0 10 3 12 1 22 -5
22 -6 0 -10 -3 -10 -7 3 -19 -2 -33 -12 -33 -6 0 -8 9 -4 23 5 15 4 19 -3 12
-5 -5 -12 -19 -15 -30 -5 -19 -5 -19 -12 2 -4 12 -13 24 -21 27 -11 4 -11 0 2
-19 9 -14 15 -25 13 -26 -31 -6 -40 -6 -44 1 -3 5 -12 7 -19 4 -7 -3 -19 2
-26 11 -7 8 -18 15 -25 15 -15 0 -29 28 -26 49 2 13 0 13 -13 2 -14 -12 -16
-11 -10 3 4 11 2 16 -7 14 -7 -2 -13 2 -14 7 0 6 -4 16 -9 24 -6 10 -5 12 2 7
17 -10 15 3 -3 20 -8 9 -15 21 -15 27 0 7 5 6 11 -3 9 -13 10 -13 6 0 -2 8 3
24 12 35 15 18 15 19 -1 6 -19 -14 -25 -2 -8 15 5 5 6 15 0 24 -5 8 -12 11
-17 7 -4 -5 -1 -12 6 -16 10 -6 10 -10 1 -16 -6 -4 -9 -13 -6 -21 3 -8 0 -14
-5 -14 -7 0 -9 11 -7 25 3 14 2 25 -2 25 -4 0 -6 10 -6 23 1 12 -3 29 -8 37
-10 13 -9 13 7 1 22 -17 22 -8 0 14 -9 9 -17 29 -19 43 -1 15 -3 28 -4 30 -7
7 -5 29 4 41 9 12 7 13 -6 8 -11 -4 -17 -1 -17 11 0 9 -3 29 -7 45 -5 21 -3
27 10 27 9 0 16 5 16 10 0 7 -6 7 -19 0 -27 -14 -31 -13 -31 8 0 10 -5 23 -12
30 -7 7 -9 12 -5 12 4 0 -5 19 -20 43 -15 25 -19 36 -9 28 14 -12 16 -12 11 2
-4 8 -16 18 -28 21 -17 4 -19 8 -9 18 16 16 16 33 0 20 -10 -7 -18 -4 -31 13
-16 23 -16 24 5 39 12 9 18 16 12 16 -5 0 -14 -4 -20 -10 -6 -6 -15 -6 -24 0
-13 8 -13 10 1 10 19 0 33 26 18 35 -5 4 -8 1 -7 -6 2 -7 -4 -14 -12 -14 -19
-2 -51 25 -44 36 3 5 1 9 -5 9 -5 0 -13 9 -16 20 -4 11 -11 18 -16 15 -5 -4
-9 3 -9 13 0 21 -27 49 -37 38 -3 -3 -2 -6 4 -6 6 0 14 -8 18 -17 4 -12 -5 -7
-24 11 -17 16 -27 34 -24 40 11 16 11 46 1 40 -5 -4 -7 -12 -4 -20 3 -8 -1
-14 -10 -14 -11 0 -13 6 -8 22 6 20 5 21 -9 10 -13 -12 -18 -10 -29 7 -7 12
-18 21 -24 21 -19 0 -57 48 -48 62 5 9 2 8 -11 -2 -17 -14 -18 -13 -13 2 5 11
2 15 -10 14 -15 -3 -78 36 -93 57 -3 5 -9 8 -13 8 -20 -3 -26 1 -26 17 1 15 2
15 15 -2 8 -11 15 -15 15 -9 0 7 -5 15 -10 18 -6 4 -8 10 -5 15 3 5 1 12 -5
15 -6 4 -9 1 -8 -7 2 -7 -3 -12 -11 -10 -8 2 -11 -3 -8 -12 4 -10 1 -13 -9 -9
-8 3 -13 11 -10 18 2 6 0 18 -6 26 -8 11 -9 11 -5 -3 4 -12 0 -16 -13 -15 -15
1 -17 4 -7 16 10 12 9 13 -9 3 -16 -8 -26 -8 -41 3 -11 8 -23 12 -26 9 -3 -3
-15 0 -28 6 -12 7 -36 14 -53 17 -17 3 -38 9 -47 14 -9 4 -19 5 -23 2 -3 -3
-6 -1 -6 5 0 6 5 14 10 17 6 3 10 12 10 18 0 7 -5 4 -11 -6 -6 -9 -15 -14 -21
-11 -6 4 -8 3 -5 -3 3 -5 -1 -10 -9 -10 -8 0 -13 6 -9 14 14 34 15 46 3 25 -8
-12 -17 -20 -21 -16 -3 4 -13 2 -20 -4 -8 -7 -25 -9 -43 -4 -16 4 -39 7 -51 6
-25 -1 -29 6 -13 22 7 7 6 11 -4 11 -8 0 -13 -4 -10 -9 3 -4 -3 -8 -13 -8 -15
0 -16 -2 -3 -10 12 -8 11 -10 -5 -7 -11 1 -24 5 -30 8 -5 3 -20 4 -32 4 -19
-2 -21 1 -12 16 5 11 7 19 5 19 -3 0 -10 -9 -16 -20z m250 -40 c0 -5 -2 -10
-4 -10 -3 0 -8 5 -11 10 -3 6 -1 10 4 10 6 0 11 -4 11 -10z m-476 -282 c-19
-23 -19 -23 2 -5 23 19 44 22 44 7 0 -5 6 -10 13 -10 6 1 2 9 -10 19 -22 18
-22 18 20 17 24 -1 47 -4 52 -7 6 -3 26 -5 45 -4 27 1 39 -4 52 -24 10 -14 18
-20 18 -13 0 7 4 10 10 7 6 -4 7 1 4 12 -4 11 -3 14 3 7 4 -7 17 -12 28 -12
36 1 45 -2 45 -13 0 -8 -4 -8 -14 0 -10 9 -15 8 -19 -3 -4 -11 -1 -13 10 -9
11 4 14 2 9 -5 -4 -6 3 -16 16 -22 20 -10 21 -10 6 3 -13 10 -15 16 -6 25 7 7
17 12 24 12 16 0 25 -38 10 -44 -6 -2 -1 -3 11 -3 16 1 19 4 12 13 -7 8 -6 14
1 19 5 3 10 1 10 -5 0 -6 4 -8 10 -5 6 4 7 -1 3 -12 -6 -16 -5 -16 10 -4 10 8
20 11 24 7 4 -3 -2 -13 -13 -20 -10 -8 -16 -18 -11 -22 4 -4 7 -2 7 5 0 7 5 9
10 6 6 -3 10 -1 10 4 0 6 9 11 20 11 11 0 20 -5 20 -11 0 -5 4 -7 10 -4 6 4 7
-1 3 -12 -6 -16 -5 -17 12 -3 17 14 18 13 12 -4 -6 -16 -5 -17 8 -6 10 8 15 9
15 1 0 -6 6 -10 13 -9 7 2 11 -7 10 -24 -1 -23 1 -25 12 -15 7 6 10 16 7 21
-3 5 0 6 7 2 9 -6 9 -11 0 -22 -10 -12 -10 -15 2 -12 8 2 16 6 19 9 3 4 12 0
20 -9 13 -14 12 -15 -3 -9 -10 4 -17 2 -17 -4 0 -7 11 -9 25 -7 35 7 53 -16
35 -45 -12 -21 -12 -21 7 -5 19 17 21 16 54 -15 53 -52 83 -91 81 -104 -1 -6
3 -15 9 -19 8 -5 9 -3 4 7 -8 12 -6 12 8 0 21 -17 12 -34 -14 -26 -10 4 -19 2
-19 -3 0 -6 14 -9 31 -8 25 2 30 -1 25 -16 -3 -13 3 -23 19 -30 14 -6 22 -15
19 -20 -3 -4 -10 -5 -16 -2 -7 4 -8 2 -4 -5 4 -6 12 -9 17 -6 5 4 9 1 9 -5 0
-6 5 -8 12 -4 7 4 8 3 4 -5 -4 -6 -12 -8 -18 -5 -7 5 -8 2 -4 -5 5 -7 15 -10
23 -7 8 3 11 1 8 -4 -3 -6 -1 -10 5 -10 8 0 8 -6 0 -20 -10 -18 2 -31 13 -12
2 4 2 1 1 -5 -2 -7 2 -13 9 -13 7 -1 1 -7 -13 -15 l-25 -15 25 3 c16 1 24 -3
23 -10 -2 -7 2 -13 7 -13 6 0 10 -5 10 -11 0 -5 -3 -8 -7 -6 -5 3 -14 -2 -22
-10 -12 -13 -11 -14 7 -9 15 5 24 1 32 -14 7 -13 7 -20 0 -20 -5 0 -10 8 -10
18 0 14 -2 15 -10 2 -6 -10 -4 -17 8 -24 9 -5 18 -10 20 -11 8 -6 24 -120 26
-180 1 -27 5 -56 9 -62 5 -7 4 -13 -1 -13 -5 0 -8 -31 -7 -70 1 -38 -3 -75 -8
-82 -6 -9 -7 -8 -3 5 3 9 1 17 -4 17 -6 0 -10 -9 -10 -20 0 -11 5 -20 10 -20
7 0 7 -6 1 -18 -5 -10 -8 -27 -7 -38 2 -10 1 -23 -3 -29 -3 -5 -6 -12 -7 -15
-4 -22 -18 -39 -28 -33 -6 3 -6 1 2 -8 24 -25 12 -32 -15 -8 -19 16 -23 18
-12 4 30 -37 29 -52 -3 -84 -25 -24 -29 -33 -19 -44 16 -19 -12 -45 -32 -29
-9 8 -17 8 -27 0 -12 -8 -12 -9 3 -4 11 3 20 0 23 -9 4 -8 11 -12 18 -9 6 3 3
-1 -6 -9 -10 -8 -15 -17 -11 -21 4 -4 0 -4 -10 0 -9 3 -17 2 -17 -4 0 -6 5
-12 10 -14 6 -2 -3 -18 -19 -36 -17 -17 -27 -32 -24 -32 3 0 -2 -9 -12 -21
l-19 -20 -18 23 c-18 23 -18 23 -6 -9 12 -31 10 -33 -42 -82 -30 -28 -60 -51
-67 -51 -7 0 -12 -6 -11 -12 2 -8 -5 -12 -16 -10 -11 2 -15 -1 -11 -7 3 -6 -5
-15 -18 -20 -14 -6 -28 -14 -31 -19 -8 -13 -103 -63 -130 -68 -11 -2 -22 -8
-24 -14 -2 -5 -8 -10 -13 -10 -6 0 -5 8 1 20 6 11 7 20 3 20 -4 0 2 7 13 16
18 14 18 15 -4 4 -12 -6 -21 -14 -18 -18 2 -4 -2 -18 -11 -32 -8 -14 -12 -18
-10 -9 3 9 1 22 -5 30 -8 11 -9 11 -4 -3 3 -10 1 -20 -5 -23 -5 -4 -7 -10 -5
-14 3 -4 -1 -8 -9 -8 -11 0 -12 5 -4 20 8 14 7 22 -2 31 -9 8 -10 8 -5 -1 8
-14 -14 -64 -25 -58 -4 3 -10 1 -13 -4 -7 -10 -44 -3 -63 12 -7 5 -13 6 -13 2
0 -4 -8 -1 -17 6 -16 13 -17 12 -5 -3 9 -11 10 -18 2 -23 -6 -3 -8 -9 -6 -13
2 -4 -12 -8 -31 -8 -22 -1 -30 2 -22 7 7 4 17 5 23 2 5 -3 6 -1 2 6 -7 11 -18
8 -46 -14 -16 -13 -50 -16 -50 -5 0 3 5 11 12 18 9 9 9 12 0 12 -7 0 -12 -4
-12 -9 0 -4 -10 -7 -22 -6 -32 3 -32 3 -17 23 13 15 12 16 -3 4 -9 -8 -29 -15
-44 -17 -14 -1 -30 -9 -35 -16 -4 -7 -11 -10 -15 -6 -4 3 -1 15 7 24 12 16 12
17 -2 6 -21 -17 -33 -5 -16 16 11 14 10 14 -5 2 -13 -10 -15 -18 -8 -31 9 -16
7 -18 -12 -14 -13 3 -34 7 -48 9 -14 2 -36 6 -50 10 -14 3 -32 8 -40 9 -8 2
-14 9 -12 15 3 15 -15 14 -22 -1 -3 -7 -4 1 -1 17 2 17 2 24 -1 18 -3 -7 -13
-13 -22 -13 -15 0 -15 -2 -2 -11 17 -12 11 -10 -47 15 -24 10 -43 22 -43 28 0
5 -4 7 -9 3 -5 -3 -12 -1 -16 5 -4 6 -11 7 -17 4 -7 -5 -8 -2 -3 6 6 10 4 12
-7 8 -8 -4 -26 4 -40 17 -13 12 -33 25 -44 29 -10 3 -37 22 -59 42 -22 19 -33
33 -25 29 8 -3 7 0 -3 7 -34 24 -60 48 -52 48 5 0 17 -8 28 -17 19 -18 19 -17
6 5 -8 12 -24 22 -36 22 -15 0 -36 17 -63 51 -22 28 -40 55 -40 59 0 5 -11 21
-24 35 -15 16 -22 33 -19 42 5 12 3 14 -8 8 -8 -4 -11 -5 -7 0 4 4 -1 20 -11
34 -14 19 -16 32 -10 43 6 11 5 19 -2 24 -8 4 -9 3 -5 -4 4 -7 3 -12 -2 -12
-8 0 -19 23 -19 40 0 3 -5 16 -12 29 -8 14 -9 21 -2 17 6 -4 11 -2 11 3 0 6
-8 11 -17 11 -16 1 -16 2 2 17 16 12 16 14 3 10 -20 -7 -34 8 -17 19 8 5 7 9
-2 14 -7 5 -13 18 -14 29 -2 23 10 28 18 9 4 -10 6 -10 6 0 1 7 -7 16 -17 20
-9 4 -18 18 -20 32 -9 93 -9 120 -1 120 6 0 7 -4 4 -10 -4 -6 1 -7 11 -3 10 4
13 8 7 10 -7 3 -11 10 -9 16 1 7 1 9 -1 5 -11 -20 -19 -4 -19 36 0 25 3 43 7
40 4 -2 6 -15 5 -29 -2 -13 1 -22 5 -19 12 7 3 55 -12 65 -7 4 -8 12 -3 20 4
7 9 29 10 49 3 53 3 53 19 47 8 -4 17 -1 21 5 4 7 3 8 -4 4 -7 -4 -12 -2 -12
4 0 6 -4 9 -9 6 -5 -4 -4 7 2 23 6 17 15 27 19 24 5 -2 4 -11 -2 -18 -8 -10
-8 -15 0 -20 6 -4 14 -4 17 -1 4 3 1 6 -7 6 -9 0 -10 3 -1 14 9 11 8 17 -4 30
-14 14 -14 18 -1 44 8 16 12 33 8 37 -4 5 2 5 12 1 16 -5 17 -4 6 9 -13 16
-10 18 14 9 9 -3 13 -11 9 -17 -4 -6 -1 -7 7 -2 10 6 7 13 -11 27 -19 16 -20
19 -5 14 16 -6 17 -4 6 9 -10 13 -10 19 4 33 9 10 14 21 12 23 -3 2 4 15 16
29 11 14 16 19 12 11 -5 -10 -3 -12 5 -7 7 5 10 15 7 23 -3 8 6 25 22 40 15
15 21 23 13 18 -10 -5 -12 -4 -7 3 11 18 24 14 31 -9 4 -11 9 -18 12 -15 3 3
-2 17 -11 30 -18 28 -7 43 29 38 19 -2 19 -2 2 9 -14 8 -16 14 -6 25 6 7 16
11 22 7 6 -4 3 -10 -9 -15 -19 -8 -19 -8 0 -5 12 1 20 11 21 24 2 33 13 39 38
24 21 -13 21 -13 6 5 -14 17 -13 21 7 40 17 16 25 19 34 10 8 -8 9 -6 4 8 -5
13 -4 17 4 12 7 -4 12 -1 12 9 0 9 5 13 10 10 6 -4 8 -10 6 -14 -3 -4 1 -8 9
-8 8 0 11 5 7 11 -3 6 -7 18 -9 26 -1 10 3 9 14 -5 15 -19 15 -19 8 4 -7 21
-5 23 19 19 21 -4 24 -3 15 8 -11 13 -9 15 7 13 4 0 11 5 16 13 6 9 7 5 3 -12
-7 -24 -7 -24 8 -5 8 11 13 23 11 27 -5 7 26 19 39 15 5 -1 13 6 18 16 6 9 14
15 20 12 5 -4 9 -1 9 6 0 7 3 9 7 6 3 -4 12 -2 20 4 7 6 13 8 13 3 0 -5 5 -2
11 6 8 12 9 10 4 -7 -3 -12 -1 -24 4 -28 7 -4 8 0 4 11 -5 14 -3 15 14 5 18
-9 24 -7 37 14 9 14 12 25 7 25 -5 0 -12 -9 -16 -19 -4 -13 -12 -18 -21 -14
-8 3 -13 10 -12 15 2 5 6 8 9 6 3 -2 13 3 23 11 9 8 19 11 23 8 3 -4 12 -2 19
4 10 8 18 7 30 -5 12 -13 19 -14 30 -5 15 13 37 3 28 -13 -4 -7 -2 -8 5 -4 16
10 -7 39 -26 32 -7 -3 -13 -1 -13 5 0 7 10 9 26 5 14 -4 23 -3 20 2 -2 4 18 8
45 7 28 -1 53 3 56 8 3 4 8 6 11 3 3 -3 -3 -16 -14 -28z m2429 -294 c14 -5 14
-8 0 -24 -21 -24 -47 -16 -32 11 11 21 11 21 32 13z m667 -108 c0 -3 -4 -8
-10 -11 -5 -3 -10 -1 -10 4 0 6 5 11 10 11 6 0 10 -2 10 -4z m-2205 -36 c3 -6
-1 -7 -9 -4 -18 7 -21 14 -7 14 6 0 13 -4 16 -10z m1230 -160 c-3 -5 -11 -10
-16 -10 -6 0 -7 5 -4 10 3 6 11 10 16 10 6 0 7 -4 4 -10z m565 -474 c0 -2 -7
-7 -16 -10 -8 -3 -12 -2 -9 4 6 10 25 14 25 6z m-1740 -321 c-7 -9 -15 -13
-19 -10 -3 3 1 10 9 15 21 14 24 12 10 -5z m-690 -539 c9 -12 8 -15 -9 -13
-21 1 -26 8 -14 20 9 9 9 9 23 -7z m-211 -20 c7 -8 -2 -11 -30 -12 -36 -2 -47
5 -34 18 10 10 54 6 64 -6z m1246 -436 c3 -5 1 -10 -4 -10 -6 0 -11 5 -11 10
0 6 2 10 4 10 3 0 8 -4 11 -10z m-2565 -10 c0 -5 -4 -10 -10 -10 -5 0 -10 5
-10 10 0 6 5 10 10 10 6 0 10 -4 10 -10z m2205 -109 c3 -6 -3 -9 -14 -8 -11 0
-17 5 -15 9 7 11 22 10 29 -1z"/>
<path d="M2540 4125 c-9 -10 -9 -15 -1 -15 6 0 11 5 11 11 0 8 6 7 18 -2 15
-13 16 -12 3 4 -16 21 -16 21 -31 2z"/>
<path d="M2360 4120 c-13 -8 -12 -10 3 -10 9 0 17 5 17 10 0 12 -1 12 -20 0z"/>
<path d="M2415 4119 c-4 -6 -5 -12 -2 -15 2 -3 7 2 10 11 7 17 1 20 -8 4z"/>
<path d="M2620 4120 c0 -5 5 -10 11 -10 5 0 8 -4 5 -8 -3 -5 1 -9 9 -9 13 0
12 4 -2 19 -18 21 -23 22 -23 8z"/>
<path d="M2245 4100 c-3 -5 -1 -10 4 -10 6 0 11 5 11 10 0 6 -2 10 -4 10 -3 0
-8 -4 -11 -10z"/>
<path d="M2593 4088 c-2 -18 0 -20 7 -8 12 18 13 30 2 30 -4 0 -9 -10 -9 -22z"/>
<path d="M2310 4081 c0 -6 4 -13 10 -16 6 -3 7 1 4 9 -7 18 -14 21 -14 7z"/>
<path d="M2693 4075 c0 -8 4 -12 9 -9 5 3 6 10 3 15 -9 13 -12 11 -12 -6z"/>
<path d="M2228 4068 c-7 -17 15 -19 29 -3 4 4 3 5 -4 2 -6 -4 -13 -2 -15 5 -3
8 -6 6 -10 -4z"/>
<path d="M2067 4029 c-10 -11 -22 -17 -27 -14 -5 3 -7 -1 -4 -9 5 -13 9 -12
26 4 12 11 25 17 29 14 5 -3 6 2 3 10 -3 9 -7 16 -8 15 0 0 -9 -9 -19 -20z"/>
<path d="M2106 4040 c3 -3 11 -5 17 -5 7 -1 11 -7 9 -14 -1 -7 2 -10 7 -6 16
9 1 34 -19 32 -11 -1 -17 -4 -14 -7z"/>
<path d="M2901 4026 c-9 -11 -9 -16 1 -22 23 -15 37 -13 30 4 -4 10 -7 12 -10
4 -2 -7 -8 -9 -13 -6 -6 3 -5 11 2 20 6 8 9 14 6 14 -2 0 -10 -6 -16 -14z"/>
<path d="M2815 4020 c-3 -5 -1 -10 4 -10 6 0 11 5 11 10 0 6 -2 10 -4 10 -3 0
-8 -4 -11 -10z"/>
<path d="M2095 4000 c3 -5 8 -10 11 -10 2 0 4 5 4 10 0 6 -5 10 -11 10 -5 0
-7 -4 -4 -10z"/>
<path d="M2983 3984 c0 -7 6 -10 14 -7 7 3 13 8 13 12 0 4 -6 8 -13 8 -8 0
-14 -6 -14 -13z"/>
<path d="M2005 3964 c-9 -15 -12 -23 -6 -20 11 7 35 46 28 46 -3 0 -12 -12
-22 -26z"/>
<path d="M2955 3980 c3 -5 8 -10 11 -10 2 0 4 5 4 10 0 6 -5 10 -11 10 -5 0
-7 -4 -4 -10z"/>
<path d="M1953 3925 c0 -8 4 -12 9 -9 5 3 6 10 3 15 -9 13 -12 11 -12 -6z"/>
<path d="M1986 3918 c3 -5 10 -6 15 -3 13 9 11 12 -6 12 -8 0 -12 -4 -9 -9z"/>
<path d="M3036 3913 c-6 -14 -5 -15 5 -6 7 7 10 15 7 18 -3 3 -9 -2 -12 -12z"/>
<path d="M3102 3925 c4 -4 3 -16 -3 -27 -6 -11 -9 -22 -6 -24 2 -2 9 7 15 21
9 18 8 26 -1 31 -7 4 -9 4 -5 -1z"/>
<path d="M3146 3879 c12 -19 11 -41 -1 -58 -9 -12 -7 -12 13 0 12 8 18 15 12
17 -5 2 -10 8 -10 13 0 6 8 5 20 -1 30 -16 24 -7 -11 19 -18 13 -28 17 -23 10z"/>
<path d="M1867 3867 c-3 -8 1 -14 8 -14 7 0 11 6 8 14 -3 7 -6 13 -8 13 -2 0
-5 -6 -8 -13z"/>
<path d="M3119 3853 c-13 -16 -12 -17 4 -4 16 13 21 21 13 21 -2 0 -10 -8 -17
-17z"/>
<path d="M1798 3823 c7 -3 16 -2 19 1 4 3 -2 6 -13 5 -11 0 -14 -3 -6 -6z"/>
<path d="M1850 3820 c0 -5 5 -10 11 -10 5 0 7 5 4 10 -3 6 -8 10 -11 10 -2 0
-4 -4 -4 -10z"/>
<path d="M3190 3819 c0 -5 4 -8 9 -5 9 6 26 -22 22 -37 -1 -5 3 -6 9 -2 6 4 4
15 -6 31 -17 25 -34 32 -34 13z"/>
<path d="M1815 3800 c3 -5 8 -10 11 -10 2 0 4 5 4 10 0 6 -5 10 -11 10 -5 0
-7 -4 -4 -10z"/>
<path d="M3194 3780 c0 -13 4 -16 10 -10 7 7 7 13 0 20 -6 6 -10 3 -10 -10z"/>
<path d="M3243 3765 c-3 -9 -3 -18 -1 -21 3 -3 8 4 11 16 6 23 -1 27 -10 5z"/>
<path d="M1730 3761 c0 -10 19 -25 25 -20 1 2 -3 10 -11 17 -8 7 -14 8 -14 3z"/>
<path d="M3215 3751 c-3 -5 -2 -12 3 -15 5 -3 9 1 9 9 0 17 -3 19 -12 6z"/>
<path d="M3297 3649 c4 -13 8 -18 11 -10 2 7 -1 18 -6 23 -8 8 -9 4 -5 -13z"/>
<path d="M3273 3635 c0 -8 4 -12 9 -9 5 3 6 10 3 15 -9 13 -12 11 -12 -6z"/>
<path d="M1670 3631 c0 -7 -5 -9 -12 -5 -7 5 -8 3 -3 -5 5 -9 10 -10 18 -2 6
6 8 14 4 18 -4 3 -7 1 -7 -6z"/>
<path d="M1633 3615 c4 -5 0 -17 -10 -27 -9 -11 -11 -18 -5 -18 7 0 12 4 12
10 0 5 6 8 13 6 6 -1 9 -1 4 1 -4 3 -5 9 -2 13 3 5 0 12 -7 16 -7 4 -10 3 -5
-1z"/>
<path d="M3317 3613 c-10 -9 -9 -23 1 -23 5 0 9 7 9 15 0 17 -1 18 -10 8z"/>
<path d="M3348 3583 c6 -2 9 -10 6 -15 -4 -7 -2 -8 4 -4 18 11 14 26 -5 25
-11 0 -13 -3 -5 -6z"/>
<path d="M1630 3541 c0 -6 4 -12 8 -15 5 -3 9 1 9 9 0 8 -4 15 -9 15 -4 0 -8
-4 -8 -9z"/>
<path d="M2219 3547 c0 -1 -3 -13 -5 -27 -4 -24 -22 -42 -34 -35 -4 2 -7 -3
-7 -11 0 -10 4 -11 11 -4 5 5 13 10 17 10 8 0 6 -49 -2 -65 -3 -6 -5 -89 -4
-185 1 -96 0 -178 -2 -182 -2 -4 -10 -5 -18 -2 -8 4 -13 10 -10 14 6 10 -22 7
-32 -4 -4 -4 -3 -6 2 -4 14 4 60 -30 52 -38 -4 -4 -15 -1 -24 7 -17 13 -17 13
-3 -5 14 -18 13 -19 -3 -13 -11 4 -16 3 -12 -4 4 -5 16 -7 28 -3 19 6 20 5 8
-10 -7 -9 -9 -16 -4 -16 14 0 10 -55 -5 -73 -8 -9 -12 -22 -9 -29 4 -8 6 -7 6
5 1 24 16 22 18 -3 1 -11 -4 -20 -10 -20 -8 0 -9 -3 -1 -8 6 -4 11 -18 11 -32
3 -72 19 -87 73 -71 22 6 46 9 53 5 6 -4 9 -3 5 1 -5 5 4 16 20 25 25 15 28
15 40 1 11 -15 12 -15 7 0 -6 16 14 39 37 43 7 1 20 6 28 11 46 30 59 33 77
20 19 -14 43 -3 43 19 0 6 -5 4 -10 -4 -9 -13 -10 -13 -10 0 0 12 -2 12 -9 1
-6 -9 -11 -10 -15 -2 -6 9 8 16 17 9 1 -2 17 7 35 20 17 13 32 18 32 12 0 -6
5 -8 10 -5 6 4 8 11 5 16 -3 5 2 6 11 2 13 -5 15 -3 9 7 -6 9 -4 11 6 5 19
-12 49 -14 43 -3 -4 5 -13 7 -23 4 -9 -4 -5 2 9 13 17 14 29 17 42 10 26 -14
34 -11 12 6 -15 11 -6 23 10 13 2 -2 12 4 22 12 33 26 92 53 103 46 7 -5 8 -1
4 11 -5 15 -3 16 8 6 16 -16 29 -17 29 -2 0 5 -4 7 -10 4 -5 -3 -10 -1 -10 6
0 6 8 9 20 6 11 -3 23 0 27 5 3 7 1 8 -5 4 -7 -4 -12 -2 -12 3 0 6 7 11 15 11
8 0 15 5 15 11 0 5 4 8 9 5 4 -3 8 9 7 27 0 24 -7 36 -28 47 -15 8 -38 24 -51
35 -13 11 -30 21 -38 23 -7 2 -16 7 -19 10 -3 4 -11 8 -19 10 -17 4 -71 41
-71 49 0 3 7 0 15 -7 9 -7 15 -8 15 -2 0 15 -26 22 -39 9 -8 -8 -11 -8 -11 2
0 7 -4 10 -8 7 -4 -2 -14 0 -22 5 -11 7 -7 8 12 5 15 -3 30 -1 32 3 3 4 -12 7
-32 8 -48 0 -72 11 -65 29 3 8 0 14 -6 14 -6 0 -11 -6 -11 -12 0 -9 -4 -8 -10
2 -5 8 -10 11 -10 6 0 -5 -8 -2 -18 7 -10 10 -22 14 -25 10 -4 -3 -7 1 -7 11
0 9 4 15 9 12 5 -3 12 1 15 9 4 13 2 14 -14 5 -11 -6 -20 -15 -20 -21 0 -6 -7
-6 -20 1 -11 6 -17 16 -14 22 5 7 2 9 -9 5 -9 -3 -24 2 -34 11 -11 9 -13 13
-6 8 8 -5 13 -4 13 2 0 14 -28 23 -35 11 -4 -5 -11 -6 -17 -3 -6 4 -1 13 13
21 22 13 11 12 -26 -3 -8 -3 -15 -1 -15 6 0 6 -3 9 -7 7 -13 -8 -98 38 -95 51
1 7 -2 12 -8 12 -5 0 -10 -5 -10 -11 0 -6 -5 -7 -12 -2 -12 7 -37 13 -39 10z"/>
<path d="M3335 3540 c3 -5 8 -10 11 -10 2 0 4 5 4 10 0 6 -5 10 -11 10 -5 0
-7 -4 -4 -10z"/>
<path d="M2370 3499 c0 -5 5 -7 10 -4 6 3 10 8 10 11 0 2 -4 4 -10 4 -5 0 -10
-5 -10 -11z"/>
<path d="M3393 3495 c-3 -9 -3 -18 -1 -21 3 -3 8 4 11 16 6 23 -1 27 -10 5z"/>
<path d="M1571 3463 c-10 -26 -10 -27 4 -9 8 11 15 23 15 28 0 15 -7 8 -19
-19z"/>
<path d="M2472 3471 c7 -9 13 -18 15 -20 1 -2 1 5 0 16 0 11 -7 20 -14 20 -10
0 -10 -4 -1 -16z"/>
<path d="M1596 3454 c-23 -23 -20 -30 4 -9 11 10 20 20 20 22 0 7 -9 2 -24
-13z"/>
<path d="M2517 3454 c5 -13 3 -15 -8 -9 -11 7 -12 6 -2 -7 7 -8 10 -18 6 -21
-3 -4 -2 -7 4 -7 13 0 14 48 2 56 -5 3 -6 -3 -2 -12z"/>
<path d="M2180 3434 c0 -9 -5 -12 -12 -8 -7 4 -8 3 -4 -4 10 -16 14 -15 26 8
7 14 7 20 0 20 -5 0 -10 -7 -10 -16z"/>
<path d="M1596 3413 c-6 -14 -5 -15 5 -6 7 7 10 15 7 18 -3 3 -9 -2 -12 -12z"/>
<path d="M2596 3422 c-2 -4 2 -16 10 -27 8 -10 14 -14 14 -8 0 7 -5 15 -10 18
-6 4 -8 11 -5 16 4 5 4 9 1 9 -3 0 -7 -3 -10 -8z"/>
<path d="M3385 3400 c-2 -3 5 -7 16 -7 10 -1 19 2 19 6 0 9 -29 10 -35 1z"/>
<path d="M2580 3391 c0 -6 4 -13 10 -16 6 -3 7 1 4 9 -7 18 -14 21 -14 7z"/>
<path d="M3430 3383 c0 -5 5 -15 10 -23 7 -12 9 -10 7 8 -1 19 -17 33 -17 15z"/>
<path d="M2155 3370 c-3 -6 1 -7 9 -4 18 7 21 14 7 14 -6 0 -13 -4 -16 -10z"/>
<path d="M2670 3364 c0 -2 9 -8 20 -14 15 -8 18 -8 14 3 -4 11 -34 21 -34 11z"/>
<path d="M3404 3359 c-4 -7 -3 -9 4 -5 5 3 13 0 15 -6 4 -9 6 -10 6 -1 1 17
-16 25 -25 12z"/>
<path d="M2153 3333 c0 -7 4 -13 8 -13 4 0 9 6 12 13 3 8 0 14 -7 14 -7 0 -13
-6 -13 -14z"/>
<path d="M2655 3340 c3 -5 8 -10 11 -10 2 0 4 5 4 10 0 6 -5 10 -11 10 -5 0
-7 -4 -4 -10z"/>
<path d="M2740 3340 c8 -5 20 -10 25 -10 6 0 3 5 -5 10 -8 5 -19 10 -25 10 -5
0 -3 -5 5 -10z"/>
<path d="M3434 3326 c-10 -8 -17 -16 -14 -19 3 -2 14 4 24 14 23 22 18 25 -10
5z"/>
<path d="M1530 3326 c0 -2 7 -7 16 -10 8 -3 12 -2 9 4 -6 10 -25 14 -25 6z"/>
<path d="M1570 3319 c0 -5 5 -7 10 -4 6 3 10 8 10 11 0 2 -4 4 -10 4 -5 0 -10
-5 -10 -11z"/>
<path d="M2776 3322 c-3 -5 1 -9 9 -9 8 0 12 4 9 9 -3 4 -7 8 -9 8 -2 0 -6 -4
-9 -8z"/>
<path d="M1536 3297 c3 -10 9 -15 12 -12 3 3 0 11 -7 18 -10 9 -11 8 -5 -6z"/>
<path d="M3447 3294 c4 -12 3 -15 -5 -10 -7 4 -12 5 -12 2 0 -3 9 -10 19 -15
16 -9 18 -8 14 9 -3 11 -9 23 -14 26 -5 3 -6 -3 -2 -12z"/>
<path d="M1574 3286 c1 -8 5 -18 8 -22 4 -3 5 1 4 10 -1 8 -5 18 -8 22 -4 3
-5 -1 -4 -10z"/>
<path d="M2155 3281 c-3 -6 3 -9 14 -8 11 0 17 5 15 9 -7 11 -22 10 -29 -1z"/>
<path d="M2781 3283 c-2 -20 16 -24 30 -5 13 15 12 16 -3 4 -13 -10 -17 -10
-21 0 -4 9 -6 9 -6 1z"/>
<path d="M2814 3258 c-5 -7 -3 -8 5 -4 7 5 19 0 27 -10 14 -18 14 -18 4 4 -12
24 -25 28 -36 10z"/>
<path d="M2176 3247 c3 -10 9 -15 12 -12 3 3 0 11 -7 18 -10 9 -11 8 -5 -6z"/>
<path d="M1540 3240 c0 -5 5 -10 11 -10 5 0 7 5 4 10 -3 6 -8 10 -11 10 -2 0
-4 -4 -4 -10z"/>
<path d="M3426 3239 c2 -4 12 -5 21 -2 10 4 14 2 9 -5 -3 -6 -2 -13 3 -16 5
-4 8 2 7 11 -2 10 -12 18 -24 19 -12 1 -19 -2 -16 -7z"/>
<path d="M2898 3218 c5 -5 16 -8 23 -6 8 3 3 7 -10 11 -17 4 -21 3 -13 -5z"/>
<path d="M2176 3207 c3 -10 9 -15 12 -12 3 3 0 11 -7 18 -10 9 -11 8 -5 -6z"/>
<path d="M2167 3179 c7 -7 15 -10 18 -7 3 3 -2 9 -12 12 -14 6 -15 5 -6 -5z"/>
<path d="M3415 3180 c-3 -5 -1 -10 4 -10 6 0 11 5 11 10 0 6 -2 10 -4 10 -3 0
-8 -4 -11 -10z"/>
<path d="M3453 3158 c1 -7 -4 -12 -11 -10 -8 1 -11 -2 -7 -8 5 -8 11 -7 21 1
16 13 18 29 4 29 -5 0 -9 -6 -7 -12z"/>
<path d="M2150 3136 c0 -2 9 -6 20 -9 11 -3 18 -1 14 4 -5 9 -34 13 -34 5z"/>
<path d="M3454 3119 c-3 -6 -2 -15 3 -20 5 -5 9 -1 9 11 0 23 -2 24 -12 9z"/>
<path d="M2153 3105 c0 -7 6 -11 14 -8 7 3 13 6 13 8 0 2 -6 5 -13 8 -8 3 -14
-1 -14 -8z"/>
<path d="M1530 3085 c-10 -12 -10 -15 0 -15 10 0 10 -3 1 -14 -8 -10 -9 -16
-1 -21 6 -4 10 -3 9 2 -1 4 0 10 1 13 3 8 7 50 5 50 -2 0 -8 -7 -15 -15z"/>
<path d="M1569 3083 c-13 -16 -12 -17 4 -4 16 13 21 21 13 21 -2 0 -10 -8 -17
-17z"/>
<path d="M2175 3080 c3 -5 8 -10 11 -10 2 0 4 5 4 10 0 6 -5 10 -11 10 -5 0
-7 -4 -4 -10z"/>
<path d="M3433 3070 c1 -11 5 -20 9 -20 3 0 6 9 5 20 -1 11 -5 20 -9 20 -3 0
-6 -9 -5 -20z"/>
<path d="M1550 3035 c0 -8 2 -15 4 -15 2 0 6 7 10 15 3 8 1 15 -4 15 -6 0 -10
-7 -10 -15z"/>
<path d="M2841 3004 c0 -11 3 -14 6 -6 3 7 2 16 -1 19 -3 4 -6 -2 -5 -13z"/>
<path d="M1530 3000 c0 -5 9 -14 20 -20 16 -8 20 -8 18 2 -2 7 3 12 10 10 8
-1 11 2 7 9 -5 8 -10 8 -18 0 -14 -14 -30 -14 -22 -1 3 6 1 10 -4 10 -6 0 -11
-4 -11 -10z"/>
<path d="M2906 3002 c-3 -5 1 -9 9 -9 8 0 12 4 9 9 -3 4 -7 8 -9 8 -2 0 -6 -4
-9 -8z"/>
<path d="M2137 2979 c7 -7 15 -10 18 -7 3 3 -2 9 -12 12 -14 6 -15 5 -6 -5z"/>
<path d="M2774 2974 c-13 -11 -15 -17 -6 -20 6 -3 9 -11 6 -16 -5 -7 -2 -8 5
-3 9 5 10 10 2 18 -8 8 -5 15 11 24 13 7 18 12 12 13 -5 0 -19 -7 -30 -16z"/>
<path d="M2873 2975 c0 -8 4 -12 9 -9 5 3 6 10 3 15 -9 13 -12 11 -12 -6z"/>
<path d="M3418 2962 c-5 -19 -4 -20 13 -11 10 5 19 12 19 15 0 3 -4 3 -9 0 -5
-4 -11 -1 -13 6 -3 7 -7 3 -10 -10z"/>
<path d="M2150 2956 c0 -2 7 -7 16 -10 8 -3 12 -2 9 4 -6 10 -25 14 -25 6z"/>
<path d="M2700 2940 c0 -5 5 -10 11 -10 5 0 7 5 4 10 -3 6 -8 10 -11 10 -2 0
-4 -4 -4 -10z"/>
<path d="M2156 2913 c-6 -14 -5 -15 5 -6 7 7 10 15 7 18 -3 3 -9 -2 -12 -12z"/>
<path d="M2721 2921 c-10 -7 -7 -9 12 -8 14 1 23 5 20 10 -6 9 -15 9 -32 -2z"/>
<path d="M3413 2915 c0 -8 4 -12 9 -9 5 3 6 10 3 15 -9 13 -12 11 -12 -6z"/>
<path d="M3426 2895 c-11 -8 -14 -15 -7 -15 7 0 9 -5 5 -12 -5 -7 -3 -8 5 -4
7 5 10 11 7 14 -3 3 -1 11 5 19 15 17 9 16 -15 -2z"/>
<path d="M2585 2879 c-4 -6 -4 -13 -1 -16 3 -4 6 -1 6 6 0 7 5 9 12 5 7 -4 8
-3 4 4 -9 15 -13 15 -21 1z"/>
<path d="M3390 2881 c0 -6 4 -13 10 -16 6 -3 7 1 4 9 -7 18 -14 21 -14 7z"/>
<path d="M1593 2855 c0 -8 4 -12 9 -9 5 3 6 10 3 15 -9 13 -12 11 -12 -6z"/>
<path d="M2135 2860 c3 -5 8 -10 11 -10 2 0 4 5 4 10 0 6 -5 10 -11 10 -5 0
-7 -4 -4 -10z"/>
<path d="M2496 2835 c-3 -8 -1 -15 4 -15 6 0 10 7 10 15 0 8 -2 15 -4 15 -2 0
-6 -7 -10 -15z"/>
<path d="M2160 2815 c-7 -9 -8 -15 -2 -15 5 0 12 7 16 15 3 8 4 15 2 15 -2 0
-9 -7 -16 -15z"/>
<path d="M2452 2818 c-15 -15 -15 -28 -1 -28 5 0 8 4 5 9 -4 5 0 11 6 14 7 2
10 7 7 10 -3 4 -11 1 -17 -5z"/>
<path d="M3380 2814 c0 -6 5 -15 11 -21 8 -8 6 -14 -9 -22 -10 -6 -23 -7 -27
-3 -5 4 -5 1 -1 -6 5 -9 13 -9 26 -2 27 15 30 23 14 45 -8 10 -14 14 -14 9z"/>
<path d="M1610 2796 c0 -8 4 -17 9 -20 5 -4 7 3 4 14 -6 23 -13 26 -13 6z"/>
<path d="M2116 2802 c-3 -5 1 -9 9 -9 8 0 12 4 9 9 -3 4 -7 8 -9 8 -2 0 -6 -4
-9 -8z"/>
<path d="M3340 2806 c0 -2 7 -9 15 -16 9 -7 15 -8 15 -2 0 5 -7 12 -15 16 -8
3 -15 4 -15 2z"/>
<path d="M2396 2792 c-3 -4 4 -9 15 -9 23 -2 25 3 4 10 -8 4 -16 3 -19 -1z"/>
<path d="M2156 2782 c-3 -5 1 -9 9 -9 8 0 12 4 9 9 -3 4 -7 8 -9 8 -2 0 -6 -4
-9 -8z"/>
<path d="M2350 2760 c0 -5 5 -10 11 -10 5 0 7 5 4 10 -3 6 -8 10 -11 10 -2 0
-4 -4 -4 -10z"/>
<path d="M2400 2756 c-5 -5 -10 -15 -10 -20 0 -6 5 -3 11 7 6 9 14 15 19 12 5
-3 11 -2 14 3 7 12 -21 11 -34 -2z"/>
<path d="M1621 2736 c-9 -11 -9 -16 0 -22 7 -4 9 -3 5 4 -3 6 2 15 11 21 10 6
13 11 7 11 -6 0 -17 -6 -23 -14z"/>
<path d="M2330 2740 c0 -5 5 -10 11 -10 5 0 7 5 4 10 -3 6 -8 10 -11 10 -2 0
-4 -4 -4 -10z"/>
<path d="M3339 2748 c-11 -36 10 -83 26 -58 5 9 4 11 -3 6 -12 -7 -15 1 -15
37 0 14 -5 24 -8 15z"/>
<path d="M2270 2730 c-9 -6 -10 -10 -3 -10 6 0 15 5 18 10 8 12 4 12 -15 0z"/>
<path d="M1636 2702 c-3 -5 3 -16 14 -25 17 -14 19 -14 17 3 -1 11 -6 16 -16
12 -9 -3 -12 -1 -7 6 4 7 5 12 2 12 -3 0 -7 -4 -10 -8z"/>
<path d="M2230 2706 c0 -2 7 -7 16 -10 8 -3 12 -2 9 4 -6 10 -25 14 -25 6z"/>
<path d="M3273 2685 c0 -8 4 -12 9 -9 5 3 6 10 3 15 -9 13 -12 11 -12 -6z"/>
<path d="M1710 2659 c0 -5 5 -7 10 -4 6 3 10 8 10 11 0 2 -4 4 -10 4 -5 0 -10
-5 -10 -11z"/>
<path d="M1664 2628 c12 -20 26 -24 26 -8 0 6 -6 10 -12 10 -9 0 -8 3 2 10 12
7 10 9 -6 8 -18 -2 -20 -5 -10 -20z"/>
<path d="M1725 2599 c-4 -6 -4 -13 -1 -16 3 -4 6 -1 6 6 0 7 5 9 12 5 7 -4 8
-3 4 4 -9 15 -13 15 -21 1z"/>
<path d="M3230 2601 c0 -6 4 -13 10 -16 6 -3 7 1 4 9 -7 18 -14 21 -14 7z"/>
<path d="M3286 2594 c-11 -8 -16 -14 -10 -14 13 0 39 18 34 24 -3 2 -14 -2
-24 -10z"/>
<path d="M1700 2584 c0 -7 8 -20 18 -31 9 -10 16 -17 15 -15 -1 3 6 12 15 21
10 9 13 13 7 9 -7 -4 -15 -5 -18 -1 -4 3 -7 0 -7 -8 -1 -8 -7 -3 -15 11 -8 14
-14 20 -15 14z"/>
<path d="M3250 2560 c0 -5 5 -10 10 -10 6 0 10 5 10 10 0 6 -4 10 -10 10 -5 0
-10 -4 -10 -10z"/>
<path d="M1755 2534 c-15 -15 -15 -18 1 -35 13 -14 21 -16 35 -8 23 12 23 13
5 28 -11 9 -16 9 -22 0 -4 -7 -3 -9 4 -5 6 3 13 2 16 -3 10 -15 -22 -21 -34
-6 -8 10 -6 17 12 29 12 9 17 16 11 16 -6 0 -19 -7 -28 -16z"/>
<path d="M3237 2539 c7 -9 9 -20 5 -25 -4 -4 1 -2 11 5 9 7 17 16 17 19 0 3
-3 2 -7 -1 -3 -4 -13 -1 -22 6 -14 10 -14 10 -4 -4z"/>
<path d="M3180 2486 c0 -2 9 -6 20 -9 11 -3 20 -1 20 4 0 5 -9 9 -20 9 -11 0
-20 -2 -20 -4z"/>
<path d="M3135 2461 c-3 -5 -1 -12 5 -16 6 -4 3 -16 -7 -33 -15 -23 -12 -22
20 8 20 19 37 39 37 44 0 6 -6 2 -13 -9 -14 -18 -43 -13 -32 6 4 5 4 9 1 9 -3
0 -7 -4 -11 -9z"/>
<path d="M3110 2440 c0 -5 5 -10 11 -10 5 0 7 5 4 10 -3 6 -8 10 -11 10 -2 0
-4 -4 -4 -10z"/>
<path d="M1870 2411 c-12 -23 -1 -34 20 -20 10 6 11 9 3 9 -7 0 -13 5 -13 11
0 5 5 7 12 3 7 -4 8 -3 4 4 -10 16 -14 15 -26 -7z"/>
<path d="M1911 2403 c4 -22 -2 -33 -13 -28 -7 4 -2 -3 11 -14 13 -12 28 -21
35 -21 6 1 0 7 -14 15 -14 8 -20 14 -15 15 13 0 17 40 4 40 -5 0 -8 -3 -8 -7z"/>
<path d="M3087 2396 c-4 -10 -1 -13 8 -9 8 3 12 9 9 14 -7 12 -11 11 -17 -5z"/>
<path d="M1950 2370 c-9 -6 -10 -10 -3 -10 6 0 15 5 18 10 8 12 4 12 -15 0z"/>
<path d="M2996 2362 c-3 -5 1 -9 9 -9 8 0 12 4 9 9 -3 4 -7 8 -9 8 -2 0 -6 -4
-9 -8z"/>
<path d="M3044 2355 c8 -8 18 -15 22 -15 3 0 1 7 -6 15 -7 8 -17 15 -22 15 -5
0 -3 -7 6 -15z"/>
<path d="M2935 2351 c-3 -5 -2 -12 3 -15 5 -3 9 1 9 9 0 17 -3 19 -12 6z"/>
<path d="M1966 2341 c-3 -4 5 -18 17 -29 l23 -22 1 23 c0 12 -1 17 -4 10 -3
-10 -7 -10 -18 0 -7 7 -11 15 -8 20 2 4 2 7 -1 7 -3 0 -7 -4 -10 -9z"/>
<path d="M3022 2329 c-11 -17 -16 -18 -28 -8 -12 10 -13 9 -8 -5 3 -9 9 -16
14 -16 10 0 44 39 39 45 -3 2 -10 -5 -17 -16z"/>
<path d="M2900 2326 c0 -2 8 -10 18 -17 15 -13 16 -12 3 4 -13 16 -21 21 -21
13z"/>
<path d="M2038 2289 c9 -10 17 -19 17 -19 0 0 1 8 1 18 0 10 -8 19 -17 19 -16
2 -17 0 -1 -18z"/>
<path d="M2960 2300 c-8 -5 -12 -11 -9 -14 2 -3 11 -1 19 4 8 5 12 11 9 14 -2
3 -11 1 -19 -4z"/>
<path d="M2080 2272 c9 -19 30 -23 30 -5 0 4 -3 3 -7 0 -3 -4 -12 1 -20 11
-13 15 -13 15 -3 -6z"/>
<path d="M2173 2275 c0 -8 4 -12 9 -9 5 3 6 10 3 15 -9 13 -12 11 -12 -6z"/>
<path d="M2909 2278 c14 -19 32 -15 30 5 0 8 -2 8 -6 -1 -4 -10 -8 -10 -21 0
-15 12 -16 11 -3 -4z"/>
<path d="M2886 2262 c-3 -5 1 -9 9 -9 8 0 12 4 9 9 -3 4 -7 8 -9 8 -2 0 -6 -4
-9 -8z"/>
<path d="M2114 2247 c-4 -7 -4 -9 1 -5 4 4 14 3 22 -3 8 -7 13 -8 13 -1 0 15
-28 23 -36 9z"/>
<path d="M2656 2247 c3 -10 9 -15 12 -12 3 3 0 11 -7 18 -10 9 -11 8 -5 -6z"/>
<path d="M2715 2240 c3 -5 8 -10 11 -10 2 0 4 5 4 10 0 6 -5 10 -11 10 -5 0
-7 -4 -4 -10z"/>
<path d="M2756 2235 c-3 -8 0 -17 6 -21 6 -4 8 -3 4 4 -3 5 -1 12 6 14 8 3 9
6 1 11 -6 4 -13 0 -17 -8z"/>
<path d="M2240 2222 c0 -7 -4 -11 -9 -7 -5 3 -12 1 -16 -4 -3 -6 3 -8 15 -6
11 2 20 -1 20 -7 0 -6 3 -9 6 -5 3 3 1 14 -5 24 -6 11 -11 13 -11 5z"/>
<path d="M2273 2205 c0 -8 4 -12 9 -9 5 3 6 10 3 15 -9 13 -12 11 -12 -6z"/>
<path d="M2720 2207 c14 -8 27 -12 30 -10 7 6 -23 23 -40 23 -8 0 -4 -6 10
-13z"/>
<path d="M2306 2197 c3 -10 9 -15 12 -12 3 3 0 11 -7 18 -10 9 -11 8 -5 -6z"/>
<path d="M2564 2198 c-3 -4 5 -5 17 -3 30 6 36 14 9 12 -12 -1 -24 -5 -26 -9z"/>
<path d="M2620 2206 c0 -2 8 -10 18 -17 15 -13 16 -12 3 4 -13 16 -21 21 -21
13z"/>
<path d="M2330 2196 c0 -2 8 -10 18 -17 15 -13 16 -12 3 4 -13 16 -21 21 -21
13z"/>
<path d="M2555 2170 c-3 -5 -1 -10 4 -10 6 0 11 5 11 10 0 6 -2 10 -4 10 -3 0
-8 -4 -11 -10z"/>
<path d="M4855 3809 c-4 -6 -5 -12 -2 -15 2 -3 7 2 10 11 7 17 1 20 -8 4z"/>
<path d="M2696 4443 c-6 -14 -5 -15 5 -6 7 7 10 15 7 18 -3 3 -9 -2 -12 -12z"/>
<path d="M2854 4440 c0 -13 4 -16 10 -10 7 7 7 13 0 20 -6 6 -10 3 -10 -10z"/>
<path d="M2338 4438 c5 -5 16 -8 23 -6 8 3 3 7 -10 11 -17 4 -21 3 -13 -5z"/>
<path d="M2731 4434 c0 -11 3 -14 6 -6 3 7 2 16 -1 19 -3 4 -6 -2 -5 -13z"/>
<path d="M2831 4434 c0 -11 3 -14 6 -6 3 7 2 16 -1 19 -3 4 -6 -2 -5 -13z"/>
<path d="M2880 4428 c-10 -21 -10 -21 3 -6 8 10 18 14 22 10 5 -4 5 -1 1 6
-10 17 -14 15 -26 -10z"/>
<path d="M5296 4438 c3 -5 10 -6 15 -3 13 9 11 12 -6 12 -8 0 -12 -4 -9 -9z"/>
<path d="M2162 4424 c10 -10 20 -16 22 -13 3 3 -5 11 -17 18 -21 13 -21 12 -5
-5z"/>
<path d="M2506 4428 c3 -5 10 -6 15 -3 13 9 11 12 -6 12 -8 0 -12 -4 -9 -9z"/>
<path d="M5266 4422 c-3 -5 1 -9 9 -9 8 0 12 4 9 9 -3 4 -7 8 -9 8 -2 0 -6 -4
-9 -8z"/>
<path d="M2271 4404 c0 -11 3 -14 6 -6 3 7 2 16 -1 19 -3 4 -6 -2 -5 -13z"/>
<path d="M2330 4409 c0 -5 5 -7 10 -4 6 3 10 8 10 11 0 2 -4 4 -10 4 -5 0 -10
-5 -10 -11z"/>
<path d="M3004 4404 c-18 -14 -18 -15 4 -4 12 6 22 13 22 15 0 8 -5 6 -26 -11z"/>
<path d="M2233 4395 c0 -7 6 -11 14 -8 7 3 13 6 13 8 0 2 -6 5 -13 8 -8 3 -14
-1 -14 -8z"/>
<path d="M3030 4395 c-14 -8 -20 -14 -14 -15 5 0 19 7 30 15 24 18 16 19 -16
0z"/>
<path d="M4956 4398 c3 -5 10 -6 15 -3 13 9 11 12 -6 12 -8 0 -12 -4 -9 -9z"/>
<path d="M5315 4400 c3 -5 8 -10 11 -10 2 0 4 5 4 10 0 6 -5 10 -11 10 -5 0
-7 -4 -4 -10z"/>
<path d="M3095 4390 c6 -10 3 -12 -13 -8 -12 4 -25 1 -29 -4 -3 -6 -2 -8 4 -5
5 3 22 -1 37 -9 32 -16 50 -19 23 -3 -9 6 -15 14 -12 19 3 5 0 12 -6 16 -8 5
-9 3 -4 -6z"/>
<path d="M3170 4380 c0 -5 5 -10 11 -10 5 0 7 5 4 10 -3 6 -8 10 -11 10 -2 0
-4 -4 -4 -10z"/>
<path d="M3142 4364 c10 -10 20 -16 22 -13 3 3 -5 11 -17 18 -21 13 -21 12 -5
-5z"/>
<path d="M2010 4366 c0 -2 7 -7 16 -10 8 -3 12 -2 9 4 -6 10 -25 14 -25 6z"/>
<path d="M2118 4363 c7 -3 16 -2 19 1 4 3 -2 6 -13 5 -11 0 -14 -3 -6 -6z"/>
<path d="M3210 4360 c-9 -6 -10 -10 -3 -10 6 0 15 5 18 10 8 12 4 12 -15 0z"/>
<path d="M4976 4357 c3 -10 9 -15 12 -12 3 3 0 11 -7 18 -10 9 -11 8 -5 -6z"/>
<path d="M5143 4355 c0 -8 4 -12 9 -9 5 3 6 10 3 15 -9 13 -12 11 -12 -6z"/>
<path d="M2050 4331 c0 -6 4 -13 10 -16 6 -3 7 1 4 9 -7 18 -14 21 -14 7z"/>
<path d="M4713 4313 c0 -9 4 -10 14 -2 7 6 13 12 13 14 0 1 -6 2 -13 2 -8 0
-14 -6 -14 -14z"/>
<path d="M5015 4319 c-4 -6 -5 -12 -2 -15 2 -3 7 2 10 11 7 17 1 20 -8 4z"/>
<path d="M5101 4317 c-1 -11 -6 -15 -13 -11 -7 5 -8 3 -3 -5 10 -16 29 2 22
21 -4 8 -6 7 -6 -5z"/>
<path d="M1995 4310 c-3 -6 1 -7 9 -4 18 7 21 14 7 14 -6 0 -13 -4 -16 -10z"/>
<path d="M3314 4296 c1 -8 5 -18 8 -22 4 -3 5 1 4 10 -1 8 -5 18 -8 22 -4 3
-5 -1 -4 -10z"/>
<path d="M5030 4305 c0 -5 5 -17 10 -25 5 -8 10 -10 10 -5 0 6 -5 17 -10 25
-5 8 -10 11 -10 5z"/>
<path d="M5067 4268 c-13 -10 -14 -17 -6 -28 9 -12 10 -12 5 4 -5 14 -2 17 9
12 9 -3 14 -2 10 3 -3 5 1 12 7 14 7 3 8 6 2 6 -5 1 -18 -5 -27 -11z"/>
<path d="M1880 4260 c-8 -5 -10 -10 -5 -10 6 0 17 5 25 10 8 5 11 10 5 10 -5
0 -17 -5 -25 -10z"/>
<path d="M3335 4261 c-3 -5 0 -13 6 -17 7 -4 9 -3 5 4 -3 5 0 13 6 15 9 4 10
6 1 6 -6 1 -14 -3 -18 -8z"/>
<path d="M1930 4249 c0 -5 -4 -7 -10 -4 -5 3 -10 2 -10 -4 0 -5 -12 -14 -27
-19 -16 -6 -22 -11 -15 -11 19 -1 72 28 72 39 0 6 -2 10 -5 10 -3 0 -5 -5 -5
-11z"/>
<path d="M3360 4243 c0 -6 8 -17 18 -24 16 -13 16 -13 2 6 -8 11 -16 22 -17
24 -2 2 -3 0 -3 -6z"/>
<path d="M3380 4246 c0 -2 8 -10 18 -17 15 -13 16 -12 3 4 -13 16 -21 21 -21
13z"/>
<path d="M5033 4234 c3 -4 2 -15 -4 -25 -8 -16 -6 -21 13 -29 22 -8 20 -11
-11 -14 -19 -1 -22 -53 -4 -60 7 -3 13 -11 13 -17 0 -8 -6 -7 -17 2 -16 13
-17 12 -4 -4 9 -12 17 -15 24 -8 7 7 6 15 -2 25 -11 13 -9 21 9 46 l21 30 -23
9 c-13 6 -18 10 -13 10 14 1 17 41 3 41 -6 0 -8 -3 -5 -6z m7 -83 c0 -6 -4
-12 -8 -15 -5 -3 -9 1 -9 9 0 8 4 15 9 15 4 0 8 -4 8 -9z"/>
<path d="M1816 4215 c-9 -26 -7 -32 5 -12 6 10 9 21 6 23 -2 3 -7 -2 -11 -11z"/>
<path d="M4731 4204 c0 -11 3 -14 6 -6 3 7 2 16 -1 19 -3 4 -6 -2 -5 -13z"/>
<path d="M3450 4200 c0 -5 5 -10 11 -10 5 0 7 5 4 10 -3 6 -8 10 -11 10 -2 0
-4 -4 -4 -10z"/>
<path d="M5400 4200 c8 -5 20 -10 25 -10 6 0 3 5 -5 10 -8 5 -19 10 -25 10 -5
0 -3 -5 5 -10z"/>
<path d="M3493 4183 c4 -6 3 -13 -2 -15 -5 -1 -3 -9 5 -16 12 -11 13 -9 11 7
-2 11 -7 24 -12 28 -4 5 -5 3 -2 -4z"/>
<path d="M3457 4158 c9 -10 21 -18 27 -18 6 0 3 5 -7 11 -9 6 -15 14 -13 18 3
4 -1 8 -9 8 -13 0 -12 -4 2 -19z"/>
<path d="M5075 4159 c-4 -6 -4 -13 -1 -16 3 -4 6 -1 6 6 0 7 5 9 10 6 6 -3 10
-1 10 4 0 14 -17 14 -25 0z"/>
<path d="M3540 4140 c8 -5 20 -10 25 -10 6 0 3 5 -5 10 -8 5 -19 10 -25 10 -5
0 -3 -5 5 -10z"/>
<path d="M5358 4143 c7 -3 16 -2 19 1 4 3 -2 6 -13 5 -11 0 -14 -3 -6 -6z"/>
<path d="M5147 4133 c-10 -9 -9 -23 1 -23 5 0 9 7 9 15 0 17 -1 18 -10 8z"/>
<path d="M1727 4113 c3 -7 6 -13 8 -13 2 0 5 6 8 13 3 8 -1 14 -8 14 -7 0 -11
-6 -8 -14z"/>
<path d="M3510 4120 c0 -5 5 -10 10 -10 6 0 10 5 10 10 0 6 -4 10 -10 10 -5 0
-10 -4 -10 -10z"/>
<path d="M5050 4120 c0 -5 5 -10 10 -10 6 0 10 5 10 10 0 6 -4 10 -10 10 -5 0
-10 -4 -10 -10z"/>
<path d="M5326 4113 c-4 -9 -1 -21 5 -27 9 -8 10 -8 5 2 -4 7 -2 19 4 27 7 9
8 15 2 15 -5 0 -13 -8 -16 -17z"/>
<path d="M5115 4109 c-4 -6 -5 -12 -2 -15 2 -3 7 2 10 11 7 17 1 20 -8 4z"/>
<path d="M5350 4100 c0 -5 5 -10 11 -10 5 0 7 5 4 10 -3 6 -8 10 -11 10 -2 0
-4 -4 -4 -10z"/>
<path d="M4783 4093 c-7 -2 -13 -10 -13 -15 0 -6 3 -8 7 -5 3 4 12 2 20 -4 9
-9 13 -8 13 0 0 6 -6 11 -12 11 -9 0 -8 4 2 10 16 10 4 12 -17 3z"/>
<path d="M5062 4080 c-10 -17 -9 -21 11 -30 20 -10 20 -10 5 3 -13 10 -14 17
-6 25 6 6 10 14 7 16 -3 3 -10 -4 -17 -14z"/>
<path d="M1676 4075 c-9 -26 -7 -32 5 -12 6 10 9 21 6 23 -2 3 -7 -2 -11 -11z"/>
<path d="M3590 4071 c0 -6 4 -13 10 -16 6 -3 7 1 4 9 -7 18 -14 21 -14 7z"/>
<path d="M5354 4066 c1 -8 5 -18 8 -22 4 -3 5 1 4 10 -1 8 -5 18 -8 22 -4 3
-5 -1 -4 -10z"/>
<path d="M1636 4062 c-3 -5 1 -9 9 -9 8 0 12 4 9 9 -3 4 -7 8 -9 8 -2 0 -6 -4
-9 -8z"/>
<path d="M1690 4048 c-12 -22 -12 -22 6 -6 10 10 15 20 12 24 -4 3 -12 -5 -18
-18z"/>
<path d="M5107 4042 c10 -18 19 -28 21 -23 4 13 3 22 -3 19 -2 -2 -11 6 -20
17 -12 15 -12 12 2 -13z"/>
<path d="M4769 4043 c-13 -16 -12 -17 4 -4 16 13 21 21 13 21 -2 0 -10 -8 -17
-17z"/>
<path d="M4806 4045 c-11 -8 -15 -15 -9 -15 7 0 15 5 18 10 4 6 11 7 17 4 7
-4 8 -2 4 4 -9 14 -7 15 -30 -3z"/>
<path d="M5024 4049 c-3 -6 -3 -13 0 -16 3 -4 6 -1 6 7 0 10 3 10 15 0 9 -7
17 -11 20 -9 2 3 -4 10 -15 17 -13 8 -21 8 -26 1z"/>
<path d="M5317 4049 c7 -7 15 -10 18 -7 3 3 -2 9 -12 12 -14 6 -15 5 -6 -5z"/>
<path d="M4811 4008 c-14 -23 -14 -23 8 -4 22 20 25 26 13 26 -4 0 -13 -10
-21 -22z"/>
<path d="M5083 4023 c-7 -3 -13 -14 -12 -26 0 -22 0 -22 9 1 12 27 24 29 17 2
-3 -11 -1 -20 4 -20 11 0 12 37 2 43 -5 2 -14 2 -20 0z"/>
<path d="M5353 4015 c0 -8 4 -12 9 -9 5 3 6 10 3 15 -9 13 -12 11 -12 -6z"/>
<path d="M1636 3994 c-5 -14 -4 -15 9 -4 17 14 19 20 6 20 -5 0 -12 -7 -15
-16z"/>
<path d="M3656 3997 c3 -10 9 -15 12 -12 3 3 0 11 -7 18 -10 9 -11 8 -5 -6z"/>
<path d="M5133 3999 c-6 -6 -9 -18 -6 -27 4 -10 2 -13 -5 -8 -7 4 -12 2 -12
-3 0 -6 5 -11 12 -11 16 0 1 -13 -18 -16 -10 -2 -13 3 -9 17 7 22 -14 26 -33
7 -9 -9 -8 -16 6 -31 9 -10 16 -22 16 -26 -1 -3 3 -5 8 -3 6 1 17 -3 26 -10
12 -10 14 -10 8 0 -4 6 -4 18 1 25 4 6 8 15 9 20 1 4 2 8 4 10 7 9 6 37 -2 37
-6 0 -5 6 2 15 14 17 9 20 -7 4z m-51 -48 c-18 -11 5 -30 31 -25 11 1 16 -1
12 -4 -4 -4 -10 -7 -13 -7 -4 0 -13 -4 -21 -9 -9 -6 -12 -5 -8 1 4 6 0 16 -8
23 -16 13 -11 30 8 30 8 0 8 -3 -1 -9z"/>
<path d="M5310 4006 c0 -3 9 -10 20 -16 11 -6 20 -8 20 -6 0 3 -9 10 -20 16
-11 6 -20 8 -20 6z"/>
<path d="M865 3965 c-27 -13 -53 -21 -58 -18 -6 3 -7 1 -3 -6 11 -17 -24 -27
-36 -10 -7 10 -8 8 -3 -8 4 -13 2 -23 -4 -23 -5 0 -40 -31 -77 -70 -50 -51
-71 -67 -80 -59 -9 8 -11 5 -8 -9 4 -11 -6 -30 -24 -50 -17 -18 -28 -32 -25
-32 2 0 -3 -7 -12 -16 -8 -9 -21 -14 -28 -11 -8 3 -13 -4 -14 -17 0 -11 1 -15
4 -8 3 6 9 12 14 12 6 0 6 -8 -1 -19 -7 -13 -18 -18 -33 -16 -19 4 -20 3 -6
-8 9 -7 14 -18 11 -25 -3 -10 -7 -9 -16 4 -10 13 -15 14 -21 4 -5 -8 -4 -11 2
-7 6 4 13 -2 16 -14 4 -16 2 -19 -16 -14 -19 5 -20 4 -5 -5 9 -6 15 -17 12
-25 -4 -8 -10 -12 -15 -9 -5 3 -6 11 -2 17 4 7 0 6 -10 -2 -18 -14 -23 -26 -8
-17 17 11 19 -19 4 -56 -8 -20 -22 -39 -31 -41 -15 -4 -15 -5 1 -6 15 -1 16
-5 7 -21 -6 -11 -8 -20 -4 -20 4 0 -5 -11 -20 -25 -30 -28 -24 -35 7 -7 19 16
20 16 9 -4 -6 -12 -8 -25 -4 -29 4 -5 0 -5 -8 0 -12 6 -13 5 -2 -6 14 -16 16
-33 2 -24 -6 3 -10 1 -10 -4 0 -6 5 -11 10 -11 6 0 10 -7 10 -15 0 -8 -6 -15
-12 -15 -9 0 -10 -3 -2 -8 12 -7 15 -44 4 -37 -4 2 -7 -3 -7 -11 0 -8 6 -13
14 -10 7 3 13 1 13 -3 0 -5 -6 -12 -12 -14 -10 -4 -10 -6 0 -6 6 -1 12 -6 12
-12 0 -5 -6 -7 -12 -4 -7 4 -4 -1 6 -9 15 -12 16 -16 5 -16 -12 0 -12 -2 1
-10 10 -6 11 -10 3 -10 -7 0 -13 -4 -13 -10 0 -5 6 -7 13 -4 8 3 14 -2 14 -10
0 -8 -4 -13 -8 -10 -4 2 -10 0 -14 -6 -4 -6 -11 -7 -17 -4 -7 4 -8 2 -4 -5 5
-8 12 -9 20 -2 18 15 37 -3 38 -37 1 -18 5 -29 11 -25 6 3 7 1 3 -5 -4 -7 -3
-12 3 -12 5 0 8 -9 6 -20 -2 -11 1 -23 7 -26 7 -4 8 -2 4 4 -4 7 -5 12 -2 12
3 0 10 -9 16 -20 8 -16 8 -18 -4 -14 -8 3 -17 0 -22 -7 -4 -8 -3 -10 4 -5 7 4
20 2 29 -3 10 -6 14 -11 10 -11 -4 0 1 -10 12 -22 11 -11 18 -25 15 -30 -3 -4
-1 -8 4 -8 16 0 64 -78 56 -91 -5 -8 -3 -9 5 -4 13 8 54 -28 44 -39 -4 -3 0
-6 8 -6 9 0 24 -8 35 -18 25 -23 86 -52 97 -45 4 2 -3 20 -17 38 -14 19 -24
40 -23 47 2 7 2 9 -1 5 -6 -11 -42 23 -42 40 0 7 -5 13 -11 13 -6 0 -9 7 -5
15 3 8 2 14 -2 12 -4 -1 -8 2 -9 7 0 5 -8 13 -17 18 -9 5 -14 13 -11 19 4 5 2
9 -3 9 -10 0 -45 67 -65 127 -10 31 -11 45 -3 53 8 8 6 9 -8 4 -13 -5 -17 -4
-12 4 3 6 2 14 -4 17 -8 5 -8 11 0 20 8 9 7 14 -4 18 -9 4 -12 16 -10 37 5 40
14 56 24 40 5 -8 9 -8 13 3 8 21 -22 15 -39 -8 -13 -18 -14 -18 -14 3 0 12 5
22 10 22 6 0 10 5 10 11 0 5 -5 7 -10 4 -6 -4 -10 -3 -9 2 1 4 0 10 -1 13 -7
18 -8 90 -1 95 6 3 8 17 5 31 -3 14 0 32 6 39 6 7 10 17 9 21 -4 23 2 54 11
54 5 0 7 -8 4 -17 -5 -15 -4 -16 5 -3 6 9 6 19 1 24 -11 11 -1 38 11 30 5 -3
9 -1 9 5 0 5 -6 12 -12 14 -10 4 -10 6 0 6 7 1 10 6 6 13 -5 8 -2 9 11 4 15
-5 16 -4 6 8 -9 11 -9 17 2 27 7 8 14 18 14 22 0 5 10 26 22 47 16 29 26 37
39 33 13 -5 15 -3 5 7 -9 10 -4 22 24 57 20 24 42 42 49 39 8 -3 11 0 7 10 -7
19 56 86 75 79 7 -2 11 -1 8 4 -7 11 44 72 56 65 4 -3 7 -1 6 4 -2 5 9 24 25
41 49 56 31 66 -48 26z"/>
<path d="M3692 3976 c4 -5 3 -18 -3 -30 -9 -18 -8 -19 3 -5 7 9 20 14 28 11
16 -5 15 -3 -15 18 -11 8 -17 11 -13 6z"/>
<path d="M4797 3970 c7 -8 20 -15 29 -16 9 -1 13 1 9 4 -4 4 -10 7 -13 7 -4 0
-14 4 -22 9 -12 7 -13 6 -3 -4z"/>
<path d="M1570 3960 c-9 -6 -10 -10 -3 -10 6 0 15 5 18 10 8 12 4 12 -15 0z"/>
<path d="M1536 3933 c-6 -14 -5 -15 5 -6 7 7 10 15 7 18 -3 3 -9 -2 -12 -12z"/>
<path d="M3705 3929 c-4 -6 -5 -12 -2 -15 2 -3 7 2 10 11 7 17 1 20 -8 4z"/>
<path d="M726 3922 c-3 -5 1 -9 9 -9 8 0 12 4 9 9 -3 4 -7 8 -9 8 -2 0 -6 -4
-9 -8z"/>
<path d="M4785 3920 c-3 -6 1 -7 9 -4 18 7 21 14 7 14 -6 0 -13 -4 -16 -10z"/>
<path d="M4827 3919 c7 -9 10 -19 6 -22 -3 -4 -1 -7 5 -7 17 0 15 16 -5 31
-16 12 -17 12 -6 -2z"/>
<path d="M5341 3896 c-10 -11 -9 -21 4 -45 8 -17 18 -31 21 -31 3 0 2 5 -1 11
-4 6 1 17 11 24 11 8 14 15 9 15 -6 0 -16 -5 -23 -12 -9 -9 -12 -9 -12 0 0 6
8 16 18 21 9 6 12 11 7 11 -6 0 -16 -5 -23 -12 -7 -7 -12 -8 -12 -2 0 6 5 15
12 22 7 7 9 12 6 12 -3 0 -11 -6 -17 -14z"/>
<path d="M1504 3878 c-3 -4 5 -5 17 -3 30 6 36 14 9 12 -12 -1 -24 -5 -26 -9z"/>
<path d="M677 3859 c7 -7 15 -10 18 -7 3 3 -2 9 -12 12 -14 6 -15 5 -6 -5z"/>
<path d="M870 3860 c0 -5 5 -10 11 -10 5 0 7 5 4 10 -3 6 -8 10 -11 10 -2 0
-4 -4 -4 -10z"/>
<path d="M3760 3860 c-13 -8 -13 -11 -1 -22 9 -8 12 -9 7 -1 -3 6 2 16 11 22
10 6 14 10 8 11 -5 0 -17 -5 -25 -10z"/>
<path d="M1495 3843 c1 -10 -3 -27 -10 -39 -10 -16 -11 -21 -1 -21 7 0 13 5
14 11 0 6 3 21 6 33 2 13 1 25 -4 28 -4 3 -7 -3 -5 -12z"/>
<path d="M646 3838 c3 -4 9 -8 15 -8 5 0 9 4 9 8 0 5 -7 9 -15 9 -8 0 -12 -4
-9 -9z"/>
<path d="M855 3831 c-3 -5 -2 -12 3 -15 5 -3 9 1 9 9 0 17 -3 19 -12 6z"/>
<path d="M627 3820 c10 -11 9 -16 -5 -27 -15 -13 -15 -13 5 -3 12 5 25 16 29
23 4 6 4 9 -1 5 -4 -4 -15 -2 -24 4 -13 10 -14 10 -4 -2z"/>
<path d="M5431 3809 c5 -10 12 -19 15 -19 3 0 3 4 0 9 -4 5 -1 11 6 13 7 3 3
7 -10 10 -19 5 -20 4 -11 -13z"/>
<path d="M5475 3820 c-3 -5 -1 -10 4 -10 6 0 11 5 11 10 0 6 -2 10 -4 10 -3 0
-8 -4 -11 -10z"/>
<path d="M3789 3800 c-6 -4 1 -7 15 -7 14 0 26 3 26 7 0 3 -7 7 -15 7 -8 0
-19 -4 -26 -7z"/>
<path d="M3856 3793 c-6 -14 -5 -15 5 -6 7 7 10 15 7 18 -3 3 -9 -2 -12 -12z"/>
<path d="M5505 3761 c-3 -6 3 -9 14 -8 11 0 17 5 15 9 -7 11 -22 10 -29 -1z"/>
<path d="M3825 3740 c-3 -6 1 -7 9 -4 18 7 21 14 7 14 -6 0 -13 -4 -16 -10z"/>
<path d="M541 3714 c0 -11 3 -14 6 -6 3 7 2 16 -1 19 -3 4 -6 -2 -5 -13z"/>
<path d="M715 3720 c-3 -5 -1 -10 4 -10 6 0 11 5 11 10 0 6 -2 10 -4 10 -3 0
-8 -4 -11 -10z"/>
<path d="M3850 3726 c0 -2 7 -7 16 -10 8 -3 12 -2 9 4 -6 10 -25 14 -25 6z"/>
<path d="M4676 3703 c-6 -14 -5 -15 5 -6 7 7 10 15 7 18 -3 3 -9 -2 -12 -12z"/>
<path d="M770 3700 c0 -5 5 -10 11 -10 5 0 7 5 4 10 -3 6 -8 10 -11 10 -2 0
-4 -4 -4 -10z"/>
<path d="M513 3685 c0 -8 4 -12 9 -9 5 3 6 10 3 15 -9 13 -12 11 -12 -6z"/>
<path d="M696 3684 c-4 -9 -4 -19 -1 -22 3 -3 5 0 5 7 0 7 4 9 10 6 6 -3 7 1
4 9 -8 20 -10 20 -18 0z"/>
<path d="M3845 3680 c3 -5 11 -10 16 -10 6 0 7 5 4 10 -3 6 -11 10 -16 10 -6
0 -7 -4 -4 -10z"/>
<path d="M5554 3682 c3 -5 0 -13 -6 -15 -9 -4 -10 -6 -1 -6 17 -1 25 16 12 25
-7 4 -9 3 -5 -4z"/>
<path d="M447 3659 c7 -7 15 -10 18 -7 3 3 -2 9 -12 12 -14 6 -15 5 -6 -5z"/>
<path d="M670 3661 c0 -6 4 -13 10 -16 6 -3 7 1 4 9 -7 18 -14 21 -14 7z"/>
<path d="M3870 3660 c-9 -6 -10 -10 -3 -10 6 0 15 5 18 10 8 12 4 12 -15 0z"/>
<path d="M942 3649 c-13 -5 -29 -6 -35 -2 -7 3 -9 3 -5 -1 8 -9 -71 -92 -84
-88 -4 1 -7 -1 -6 -5 4 -13 -24 -73 -33 -73 -5 0 -8 -3 -8 -7 4 -22 -2 -33
-13 -27 -8 5 -9 2 -5 -10 5 -14 3 -17 -8 -12 -18 7 -20 -10 -2 -18 8 -4 5 -10
-10 -22 -24 -17 -30 -34 -12 -34 5 0 7 5 4 10 -3 6 -1 10 5 10 7 0 9 -8 5 -21
-4 -12 -8 -31 -9 -43 -2 -13 -6 -27 -9 -33 -3 -5 -1 -27 4 -48 10 -35 9 -40
-11 -55 -17 -13 -20 -19 -10 -25 8 -5 11 -4 7 2 -4 6 0 14 9 17 12 4 15 2 11
-9 -4 -8 -2 -17 4 -20 5 -4 7 -17 5 -31 -3 -13 0 -24 5 -24 5 0 9 -5 9 -10 0
-7 -7 -7 -22 0 -22 11 -22 10 -4 -4 11 -9 24 -16 30 -16 5 0 1 -7 -10 -15 -15
-12 -16 -14 -2 -9 26 9 46 -39 27 -63 -12 -16 -12 -17 2 -6 20 16 33 5 17 -14
-8 -10 -8 -12 3 -8 14 5 75 -80 71 -98 -2 -5 2 -6 7 -3 10 7 33 -18 26 -27 -3
-4 -2 -5 1 -3 3 2 22 -7 41 -20 34 -23 63 -31 63 -18 0 3 -9 19 -21 35 -11 16
-17 29 -12 29 4 0 0 5 -10 11 -9 6 -15 14 -12 19 3 4 -2 11 -11 14 -13 5 -14
9 -4 21 11 13 10 14 -4 9 -11 -4 -16 -1 -16 10 0 9 -5 16 -12 16 -6 0 -9 3 -5
6 3 4 -1 13 -10 22 -14 14 -14 16 3 22 16 6 15 7 -5 13 -13 3 -20 10 -17 15 3
6 2 12 -2 14 -5 1 -12 15 -16 30 -5 23 -3 27 11 22 11 -3 10 0 -3 7 -25 13
-28 57 -4 76 13 10 12 11 -5 7 -16 -4 -20 0 -22 23 -1 26 0 27 13 8 8 -10 14
-14 14 -8 0 6 -7 16 -15 23 -17 14 -20 40 -4 40 5 0 7 -5 3 -11 -4 -8 0 -8 15
0 26 14 27 19 4 17 -14 -1 -18 8 -20 42 -1 33 2 42 15 42 15 0 15 2 2 10 -13
9 -13 11 0 20 10 6 11 10 3 10 -7 0 -13 4 -13 10 0 5 8 6 18 3 14 -6 15 -4 5
9 -10 12 -10 23 -1 49 6 19 14 36 18 39 7 6 23 40 25 55 0 6 7 9 14 7 8 -2 11
3 8 12 -4 9 1 20 11 25 9 6 14 11 9 11 -4 0 0 11 9 25 20 31 17 36 -14 24z"/>
<path d="M4629 3638 c-6 -21 -5 -37 2 -32 5 3 7 9 4 14 -3 4 1 11 7 13 10 4
10 6 1 6 -7 1 -13 0 -14 -1z"/>
<path d="M5594 3626 c1 -8 5 -18 8 -22 4 -3 5 1 4 10 -1 8 -5 18 -8 22 -4 3
-5 -1 -4 -10z"/>
<path d="M690 3619 c0 -5 5 -7 10 -4 6 3 10 8 10 11 0 2 -4 4 -10 4 -5 0 -10
-5 -10 -11z"/>
<path d="M635 3610 c-3 -6 1 -7 9 -4 18 7 21 14 7 14 -6 0 -13 -4 -16 -10z"/>
<path d="M1393 3599 c-1 -10 3 -22 9 -25 7 -5 9 -1 5 9 -3 9 -1 17 6 20 7 2 5
5 -4 9 -10 4 -15 -1 -16 -13z"/>
<path d="M3893 3612 c-7 -4 -9 -13 -4 -21 6 -9 10 -7 14 8 3 12 4 21 4 21 -1
0 -7 -4 -14 -8z"/>
<path d="M4564 3598 l-19 -23 23 19 c21 18 27 26 19 26 -2 0 -12 -10 -23 -22z"/>
<path d="M415 3580 c3 -5 8 -10 11 -10 2 0 4 5 4 10 0 6 -5 10 -11 10 -5 0 -7
-4 -4 -10z"/>
<path d="M620 3585 c0 -7 30 -13 34 -7 3 4 -4 9 -15 9 -10 1 -19 0 -19 -2z"/>
<path d="M605 3560 c-3 -6 1 -7 9 -4 18 7 21 14 7 14 -6 0 -13 -4 -16 -10z"/>
<path d="M3902 3565 c3 -3 16 -8 28 -10 12 -2 20 -1 16 2 -4 4 -16 8 -28 10
-12 2 -19 1 -16 -2z"/>
<path d="M5540 3560 c0 -5 7 -7 15 -4 8 4 15 8 15 10 0 2 -7 4 -15 4 -8 0 -15
-4 -15 -10z"/>
<path d="M635 3549 c-4 -6 -5 -12 -2 -15 2 -3 7 2 10 11 7 17 1 20 -8 4z"/>
<path d="M4496 3533 c-6 -14 -5 -15 5 -6 7 7 10 15 7 18 -3 3 -9 -2 -12 -12z"/>
<path d="M770 3525 c-9 -11 -10 -19 -3 -26 8 -8 13 -7 18 2 5 8 4 10 -3 5 -16
-9 -15 7 0 22 7 7 9 12 6 12 -3 0 -11 -7 -18 -15z"/>
<path d="M587 3523 c-3 -5 4 -15 16 -23 21 -12 21 -12 7 6 -8 10 -15 20 -16
22 -1 2 -4 -1 -7 -5z"/>
<path d="M730 3519 c0 -5 5 -7 10 -4 6 3 10 8 10 11 0 2 -4 4 -10 4 -5 0 -10
-5 -10 -11z"/>
<path d="M1330 3521 c0 -6 4 -13 10 -16 6 -3 7 1 4 9 -7 18 -14 21 -14 7z"/>
<path d="M905 3500 c-3 -6 1 -7 9 -4 18 7 21 14 7 14 -6 0 -13 -4 -16 -10z"/>
<path d="M3908 3503 c7 -3 16 -2 19 1 4 3 -2 6 -13 5 -11 0 -14 -3 -6 -6z"/>
<path d="M3936 3493 c-6 -14 -5 -15 5 -6 7 7 10 15 7 18 -3 3 -9 -2 -12 -12z"/>
<path d="M4456 3493 c-6 -14 -5 -15 5 -6 7 7 10 15 7 18 -3 3 -9 -2 -12 -12z"/>
<path d="M4507 3496 c-4 -10 -1 -13 8 -9 8 3 12 9 9 14 -7 12 -11 11 -17 -5z"/>
<path d="M411 3474 c0 -11 3 -14 6 -6 3 7 2 16 -1 19 -3 4 -6 -2 -5 -13z"/>
<path d="M1105 3463 c-68 -72 -89 -97 -76 -88 11 6 13 4 8 -9 -4 -10 -7 -20
-7 -22 0 -3 -3 -3 -7 -1 -5 3 -9 -17 -10 -45 -1 -28 -8 -57 -15 -66 -10 -12
-10 -14 0 -8 7 4 12 1 12 -9 0 -9 -4 -13 -10 -10 -5 3 -10 1 -10 -4 0 -6 4
-11 9 -11 5 0 12 -21 16 -47 13 -93 56 -168 116 -207 25 -16 27 -16 32 4 3 11
1 20 -4 20 -5 0 -15 14 -24 30 -9 17 -13 30 -9 30 4 0 1 7 -6 15 -6 8 -9 19
-5 25 3 5 1 10 -5 10 -7 0 -10 7 -7 15 4 8 2 17 -4 21 -6 3 -10 20 -9 38 1 17
1 33 0 36 -1 3 -3 17 -5 32 -3 22 0 26 17 23 11 -3 17 -1 14 3 -4 4 -13 7 -19
7 -7 1 -10 7 -8 15 2 8 3 22 3 30 -2 35 10 90 19 85 5 -4 6 1 3 9 -3 8 2 28
11 46 9 17 15 39 13 48 -3 14 -9 11 -33 -15z"/>
<path d="M588 3473 c7 -3 16 -2 19 1 4 3 -2 6 -13 5 -11 0 -14 -3 -6 -6z"/>
<path d="M3914 3464 c1 -9 11 -21 22 -26 18 -9 18 -8 2 5 -10 8 -15 16 -12 19
3 4 1 9 -4 12 -6 3 -9 -1 -8 -10z"/>
<path d="M4470 3458 c0 -11 12 -10 30 2 12 7 10 9 -8 7 -12 0 -22 -5 -22 -9z"/>
<path d="M5530 3460 c0 -5 5 -10 11 -10 5 0 7 5 4 10 -3 6 -8 10 -11 10 -2 0
-4 -4 -4 -10z"/>
<path d="M875 3449 c-4 -6 -5 -12 -2 -15 2 -3 7 2 10 11 7 17 1 20 -8 4z"/>
<path d="M5465 3450 c-3 -5 -5 -10 -3 -11 27 -6 39 -5 45 4 3 7 3 9 -2 5 -4
-4 -14 -3 -21 3 -8 7 -14 7 -19 -1z"/>
<path d="M379 3433 c-13 -15 -12 -15 9 -4 23 12 28 21 13 21 -5 0 -15 -7 -22
-17z"/>
<path d="M925 3440 c-3 -6 1 -7 9 -4 18 7 21 14 7 14 -6 0 -13 -4 -16 -10z"/>
<path d="M696 3418 c3 -5 10 -6 15 -3 13 9 11 12 -6 12 -8 0 -12 -4 -9 -9z"/>
<path d="M1014 3418 c-4 -7 -4 -10 1 -6 4 4 15 2 24 -5 14 -11 14 -10 2 6 -16
20 -18 21 -27 5z"/>
<path d="M5450 3420 c0 -5 5 -10 11 -10 5 0 7 5 4 10 -3 6 -8 10 -11 10 -2 0
-4 -4 -4 -10z"/>
<path d="M360 3392 c9 -19 30 -23 30 -5 0 4 -3 3 -7 0 -3 -4 -12 1 -20 11 -13
15 -13 15 -3 -6z"/>
<path d="M981 3396 c-9 -11 -9 -16 1 -22 7 -4 10 -4 6 1 -4 4 -3 14 3 22 6 7
9 13 6 13 -2 0 -10 -6 -16 -14z"/>
<path d="M1135 3389 c-4 -6 -5 -12 -2 -15 2 -3 7 2 10 11 7 17 1 20 -8 4z"/>
<path d="M1350 3391 c0 -6 4 -12 8 -15 5 -3 9 1 9 9 0 8 -4 15 -9 15 -4 0 -8
-4 -8 -9z"/>
<path d="M5418 3388 c5 -5 16 -8 23 -6 8 3 3 7 -10 11 -17 4 -21 3 -13 -5z"/>
<path d="M3970 3380 c0 -5 5 -10 11 -10 5 0 7 5 4 10 -3 6 -8 10 -11 10 -2 0
-4 -4 -4 -10z"/>
<path d="M4423 3373 c0 -9 4 -10 14 -2 7 6 13 12 13 14 0 1 -6 2 -13 2 -8 0
-14 -6 -14 -14z"/>
<path d="M5400 3370 c6 -11 13 -20 16 -20 2 0 0 9 -6 20 -6 11 -13 20 -16 20
-2 0 0 -9 6 -20z"/>
<path d="M548 3373 c7 -3 16 -2 19 1 4 3 -2 6 -13 5 -11 0 -14 -3 -6 -6z"/>
<path d="M875 3369 c-4 -6 -5 -12 -2 -15 2 -3 7 2 10 11 7 17 1 20 -8 4z"/>
<path d="M4369 3363 c-8 -9 -9 -14 -3 -10 7 4 14 0 18 -8 3 -8 10 -15 16 -15
6 0 4 7 -4 16 -9 8 -14 20 -11 25 10 15 -2 10 -16 -8z"/>
<path d="M548 3343 c7 -3 16 -2 19 1 4 3 -2 6 -13 5 -11 0 -14 -3 -6 -6z"/>
<path d="M4000 3340 c-9 -6 -10 -10 -3 -10 6 0 15 5 18 10 8 12 4 12 -15 0z"/>
<path d="M521 3324 c0 -11 3 -14 6 -6 3 7 2 16 -1 19 -3 4 -6 -2 -5 -13z"/>
<path d="M693 3325 c0 -8 4 -12 9 -9 5 3 6 10 3 15 -9 13 -12 11 -12 -6z"/>
<path d="M1315 3329 c-4 -6 -5 -12 -2 -15 2 -3 7 2 10 11 7 17 1 20 -8 4z"/>
<path d="M845 3320 c-3 -6 1 -7 9 -4 18 7 21 14 7 14 -6 0 -13 -4 -16 -10z"/>
<path d="M989 3317 c6 -8 7 -18 3 -22 -4 -5 -1 -5 6 -1 10 6 10 11 1 22 -6 8
-14 14 -16 14 -3 0 0 -6 6 -13z"/>
<path d="M4315 3321 c-3 -5 -2 -12 3 -15 5 -3 9 1 9 9 0 17 -3 19 -12 6z"/>
<path d="M4344 3318 c-3 -5 0 -7 7 -6 6 2 14 -3 17 -11 3 -9 0 -11 -8 -6 -8 5
-11 4 -6 -3 3 -6 -2 -15 -11 -21 -10 -6 -13 -10 -8 -11 13 0 26 10 49 38 19
22 19 22 1 16 -11 -5 -16 -4 -12 3 3 5 -1 10 -9 10 -8 0 -17 -4 -20 -9z"/>
<path d="M5356 3313 c-4 -9 -3 -20 1 -24 4 -4 9 3 9 17 2 28 -1 31 -10 7z"/>
<path d="M534 3299 c-3 -6 -2 -15 4 -21 6 -6 12 -6 17 3 6 8 4 10 -5 4 -10 -6
-12 -4 -7 8 7 19 2 23 -9 6z"/>
<path d="M700 3300 c-9 -6 -10 -10 -3 -10 6 0 15 5 18 10 8 12 4 12 -15 0z"/>
<path d="M870 3299 c0 -5 5 -7 10 -4 6 3 10 8 10 11 0 2 -4 4 -10 4 -5 0 -10
-5 -10 -11z"/>
<path d="M3975 3300 c-3 -5 -1 -10 4 -10 6 0 11 5 11 10 0 6 -2 10 -4 10 -3 0
-8 -4 -11 -10z"/>
<path d="M5295 3290 c-10 -11 -13 -20 -7 -20 6 0 13 6 15 13 4 10 6 10 6 0 1
-7 6 -13 12 -13 8 0 9 4 0 13 -6 8 -8 17 -4 20 3 4 4 7 1 7 -3 0 -13 -9 -23
-20z"/>
<path d="M847 3287 c-3 -8 1 -14 8 -14 7 0 11 6 8 14 -3 7 -6 13 -8 13 -2 0
-5 -6 -8 -13z"/>
<path d="M1299 3273 c-13 -17 -13 -17 6 -3 11 8 22 16 24 17 2 2 0 3 -6 3 -6
0 -17 -8 -24 -17z"/>
<path d="M5393 3275 c0 -8 4 -12 9 -9 5 3 6 10 3 15 -9 13 -12 11 -12 -6z"/>
<path d="M1135 3269 c-4 -6 -5 -12 -2 -15 2 -3 7 2 10 11 7 17 1 20 -8 4z"/>
<path d="M1340 3270 c-8 -5 -12 -12 -9 -15 4 -3 12 1 19 10 14 17 11 19 -10 5z"/>
<path d="M3996 3259 c2 -4 -1 -9 -8 -11 -7 -3 -4 -7 7 -12 11 -4 16 -4 12 0
-4 4 -2 12 3 19 7 8 5 12 -5 12 -8 0 -12 -4 -9 -8z"/>
<path d="M528 3253 c-10 -2 -18 -9 -18 -14 0 -6 8 -5 20 1 11 6 20 13 20 15 0
3 -1 4 -2 4 -2 -1 -11 -3 -20 -6z"/>
<path d="M5285 3250 c-3 -5 -12 -7 -20 -3 -23 8 -17 -5 8 -18 12 -6 19 -8 15
-4 -4 5 -3 14 3 22 6 7 9 13 6 13 -3 0 -8 -4 -12 -10z"/>
<path d="M350 3240 c0 -6 7 -10 15 -10 8 0 15 2 15 4 0 2 -7 6 -15 10 -8 3
-15 1 -15 -4z"/>
<path d="M696 3237 c3 -10 9 -15 12 -12 3 3 0 11 -7 18 -10 9 -11 8 -5 -6z"/>
<path d="M1236 3238 c3 -5 10 -6 15 -3 13 9 11 12 -6 12 -8 0 -12 -4 -9 -9z"/>
<path d="M4326 3238 c5 -8 2 -9 -9 -5 -9 3 -19 2 -21 -2 -3 -5 4 -8 16 -7 22
1 39 26 18 26 -6 0 -8 -5 -4 -12z"/>
<path d="M4189 3223 c-13 -16 -12 -17 4 -4 9 7 17 15 17 17 0 8 -8 3 -21 -13z"/>
<path d="M575 3220 c3 -5 8 -10 11 -10 2 0 4 5 4 10 0 6 -5 10 -11 10 -5 0 -7
-4 -4 -10z"/>
<path d="M675 3220 c-3 -5 -1 -10 4 -10 6 0 11 5 11 10 0 6 -2 10 -4 10 -3 0
-8 -4 -11 -10z"/>
<path d="M895 3220 c-3 -5 -1 -10 4 -10 6 0 11 5 11 10 0 6 -2 10 -4 10 -3 0
-8 -4 -11 -10z"/>
<path d="M1130 3221 c0 -6 4 -13 10 -16 6 -3 7 1 4 9 -7 18 -14 21 -14 7z"/>
<path d="M3973 3217 c0 -7 9 -14 20 -14 11 -1 24 -8 28 -15 6 -9 8 -6 7 8 -2
15 -7 20 -20 16 -10 -2 -18 1 -18 7 0 6 -4 11 -8 11 -5 0 -9 -6 -9 -13z"/>
<path d="M5245 3209 c-11 -16 -1 -19 13 -3 7 8 8 14 3 14 -5 0 -13 -5 -16 -11z"/>
<path d="M700 3195 c-11 -13 -10 -14 4 -9 9 3 16 10 16 15 0 13 -6 11 -20 -6z"/>
<path d="M1316 3193 c-6 -14 -5 -15 5 -6 7 7 10 15 7 18 -3 3 -9 -2 -12 -12z"/>
<path d="M4245 3200 c-3 -5 -1 -10 4 -10 6 0 11 5 11 10 0 6 -2 10 -4 10 -3 0
-8 -4 -11 -10z"/>
<path d="M1114 3189 c-3 -6 -2 -15 3 -20 5 -5 9 -1 9 11 0 23 -2 24 -12 9z"/>
<path d="M535 3180 c3 -5 8 -10 11 -10 2 0 4 5 4 10 0 6 -5 10 -11 10 -5 0 -7
-4 -4 -10z"/>
<path d="M646 3178 c3 -5 10 -6 15 -3 13 9 11 12 -6 12 -8 0 -12 -4 -9 -9z"/>
<path d="M1339 3188 c-5 -18 -6 -38 -1 -34 7 8 12 36 6 36 -2 0 -4 -1 -5 -2z"/>
<path d="M4120 3180 c-9 -6 -10 -10 -3 -10 6 0 15 5 18 10 8 12 4 12 -15 0z"/>
<path d="M4153 3165 c0 -8 4 -15 9 -15 4 0 8 4 8 9 0 6 -4 12 -8 15 -5 3 -9
-1 -9 -9z"/>
<path d="M5224 3158 l-19 -23 23 19 c12 11 22 21 22 23 0 8 -8 2 -26 -19z"/>
<path d="M336 3153 c-6 -14 -5 -15 5 -6 7 7 10 15 7 18 -3 3 -9 -2 -12 -12z"/>
<path d="M4040 3140 c19 -16 40 -28 47 -25 6 2 14 1 17 -3 4 -3 14 -7 22 -8
13 -2 13 0 -2 17 -9 10 -19 17 -22 14 -3 -3 -14 2 -23 11 -10 9 -31 18 -46 20
l-28 3 35 -29z m31 0 c31 -26 15 -26 -18 0 -14 11 -21 20 -15 20 5 0 20 -9 33
-20z"/>
<path d="M868 3143 c7 -3 16 -2 19 1 4 3 -2 6 -13 5 -11 0 -14 -3 -6 -6z"/>
<path d="M1295 3140 c3 -5 8 -10 11 -10 2 0 4 5 4 10 0 6 -5 10 -11 10 -5 0
-7 -4 -4 -10z"/>
<path d="M996 3127 c3 -10 9 -15 12 -12 3 3 0 11 -7 18 -10 9 -11 8 -5 -6z"/>
<path d="M1104 3128 c3 -15 26 -23 26 -8 0 6 -4 9 -9 6 -5 -4 -12 -1 -14 4 -3
6 -4 5 -3 -2z"/>
<path d="M356 3113 c-6 -14 -5 -15 5 -6 7 7 10 15 7 18 -3 3 -9 -2 -12 -12z"/>
<path d="M695 3120 c3 -5 8 -10 11 -10 2 0 4 5 4 10 0 6 -5 10 -11 10 -5 0 -7
-4 -4 -10z"/>
<path d="M5205 3119 c-3 -4 2 -6 10 -5 21 3 28 13 10 13 -9 0 -18 -4 -20 -8z"/>
<path d="M554 3102 c4 -3 14 -7 22 -8 9 -1 13 0 10 4 -4 3 -14 7 -22 8 -9 1
-13 0 -10 -4z"/>
<path d="M856 3098 c3 -5 10 -6 15 -3 13 9 11 12 -6 12 -8 0 -12 -4 -9 -9z"/>
<path d="M1306 3098 c3 -5 10 -6 15 -3 13 9 11 12 -6 12 -8 0 -12 -4 -9 -9z"/>
<path d="M1339 3103 c-1 -5 -3 -18 -4 -29 -1 -12 -5 -26 -9 -33 -4 -6 -2 -11
3 -11 6 0 11 6 12 13 0 6 2 24 4 40 2 15 2 27 -1 27 -2 0 -5 -3 -5 -7z"/>
<path d="M5147 3093 c-12 -12 -7 -23 11 -23 14 0 14 2 3 9 -11 7 -10 10 5 14
14 3 15 5 3 6 -9 0 -19 -2 -22 -6z"/>
<path d="M547 3079 c7 -7 15 -10 18 -7 3 3 -2 9 -12 12 -14 6 -15 5 -6 -5z"/>
<path d="M935 3059 c-3 -4 2 -6 10 -5 21 3 28 13 10 13 -9 0 -18 -4 -20 -8z"/>
<path d="M868 3049 c-4 -9 2 -21 15 -29 19 -11 20 -11 11 1 -6 8 -13 21 -16
28 -4 13 -5 13 -10 0z"/>
<path d="M1130 3056 c0 -2 8 -10 18 -17 15 -13 16 -12 3 4 -13 16 -21 21 -21
13z"/>
<path d="M550 3020 c0 -5 5 -10 10 -10 6 0 10 5 10 10 0 6 -4 10 -10 10 -5 0
-10 -4 -10 -10z"/>
<path d="M690 3019 c0 -5 5 -7 10 -4 6 3 10 8 10 11 0 2 -4 4 -10 4 -5 0 -10
-5 -10 -11z"/>
<path d="M5134 3015 c-4 -8 -9 -13 -13 -11 -4 3 -8 -5 -8 -17 -2 -18 0 -19 8
-7 20 31 30 50 24 50 -3 0 -8 -7 -11 -15z"/>
<path d="M740 3002 c0 -5 7 -9 15 -9 8 0 12 4 9 9 -3 4 -9 8 -15 8 -5 0 -9 -4
-9 -8z"/>
<path d="M1030 3001 c0 -6 4 -12 8 -15 5 -3 9 1 9 9 0 8 -4 15 -9 15 -4 0 -8
-4 -8 -9z"/>
<path d="M390 2986 c0 -2 7 -7 16 -10 8 -3 12 -2 9 4 -6 10 -25 14 -25 6z"/>
<path d="M590 2980 c0 -5 5 -10 11 -10 5 0 7 5 4 10 -3 6 -8 10 -11 10 -2 0
-4 -4 -4 -10z"/>
<path d="M1320 2979 c-12 -8 -11 -9 5 -7 12 2 19 -2 18 -9 -2 -7 2 -13 7 -13
14 0 12 16 -3 28 -8 7 -18 8 -27 1z"/>
<path d="M570 2971 c0 -6 4 -13 10 -16 6 -3 7 1 4 9 -7 18 -14 21 -14 7z"/>
<path d="M914 2954 c1 -8 4 -15 7 -16 2 -2 3 -1 2 1 -2 2 2 9 7 16 7 8 5 12
-4 12 -8 0 -13 -6 -12 -13z"/>
<path d="M581 2924 c0 -11 3 -14 6 -6 3 7 2 16 -1 19 -3 4 -6 -2 -5 -13z"/>
<path d="M5068 2912 c9 -10 19 -17 21 -16 6 5 -20 34 -30 34 -5 0 -1 -8 9 -18z"/>
<path d="M596 2887 c3 -10 9 -15 12 -12 3 3 0 11 -7 18 -10 9 -11 8 -5 -6z"/>
<path d="M791 2887 c2 -2 11 -8 20 -15 12 -9 16 -9 16 1 0 7 -9 14 -20 14 -11
1 -18 1 -16 0z"/>
<path d="M1330 2878 c0 -6 3 -8 7 -5 3 4 13 1 22 -6 14 -11 14 -10 2 6 -15 20
-31 22 -31 5z"/>
<path d="M615 2859 c-6 -8 -4 -10 5 -4 10 6 12 4 6 -11 -6 -15 -5 -17 5 -6 9
9 10 15 2 23 -8 8 -13 7 -18 -2z"/>
<path d="M650 2860 c0 -5 5 -10 11 -10 5 0 7 5 4 10 -3 6 -8 10 -11 10 -2 0
-4 -4 -4 -10z"/>
<path d="M5030 2865 c0 -5 5 -17 10 -25 5 -8 10 -10 10 -5 0 6 -5 17 -10 25
-5 8 -10 11 -10 5z"/>
<path d="M496 2817 c3 -10 9 -15 12 -12 3 3 0 11 -7 18 -10 9 -11 8 -5 -6z"/>
<path d="M1367 2800 c4 -14 2 -21 -3 -17 -6 3 -11 -3 -11 -14 -1 -10 2 -19 8
-19 5 0 8 3 7 8 0 4 2 15 7 25 4 11 3 23 -3 29 -8 8 -9 4 -5 -12z"/>
<path d="M670 2799 c0 -5 5 -7 10 -4 6 3 10 8 10 11 0 2 -4 4 -10 4 -5 0 -10
-5 -10 -11z"/>
<path d="M4976 2795 c-9 -26 -7 -32 5 -12 6 10 9 21 6 23 -2 3 -7 -2 -11 -11z"/>
<path d="M4994 2779 c-3 -6 -2 -15 3 -20 5 -5 9 -1 9 11 0 23 -2 24 -12 9z"/>
<path d="M913 2765 c0 -8 4 -12 9 -9 5 3 6 10 3 15 -9 13 -12 11 -12 -6z"/>
<path d="M524 2759 c-4 -7 -3 -9 4 -5 5 3 13 0 15 -6 4 -9 6 -10 6 -1 1 17
-16 25 -25 12z"/>
<path d="M4949 2760 c-1 -5 -2 -16 -3 -22 -1 -7 -5 -17 -11 -21 -6 -5 -4 -7 5
-4 8 2 14 12 12 22 -3 14 1 16 17 12 27 -7 27 -1 1 13 -14 7 -20 7 -21 0z"/>
<path d="M496 2727 c3 -10 9 -15 12 -12 3 3 0 11 -7 18 -10 9 -11 8 -5 -6z"/>
<path d="M716 2713 c-6 -14 -5 -15 5 -6 7 7 10 15 7 18 -3 3 -9 -2 -12 -12z"/>
<path d="M4896 2675 c-16 -25 -16 -25 3 -13 11 6 18 15 15 19 -2 4 4 10 13 12
15 4 15 5 2 6 -9 0 -24 -10 -33 -24z"/>
<path d="M4916 2655 c-11 -8 -15 -15 -9 -15 6 0 16 7 23 15 16 19 11 19 -14 0z"/>
<path d="M4863 2608 c0 -13 1 -17 4 -10 3 6 10 9 16 5 7 -4 6 1 -2 10 -17 21
-17 21 -18 -5z"/>
<path d="M1395 2610 c-3 -5 -1 -18 5 -27 9 -15 10 -14 4 6 -4 17 -3 21 6 16 9
-5 11 -4 6 3 -9 15 -13 15 -21 2z"/>
<path d="M1360 2595 c-7 -9 -11 -17 -9 -20 3 -2 10 5 17 15 14 24 10 26 -8 5z"/>
<path d="M4838 2558 c-9 -5 -6 -7 9 -5 12 2 25 6 28 8 8 9 -23 6 -37 -3z"/>
<path d="M1419 2536 c6 -7 9 -22 5 -32 -5 -17 -4 -17 5 -2 12 18 5 48 -11 48
-7 0 -6 -5 1 -14z"/>
<path d="M4791 2492 c-1 -7 -6 -10 -13 -6 -6 4 -8 3 -5 -4 8 -12 32 -10 44 3
4 4 3 5 -4 2 -6 -4 -14 -1 -16 5 -4 10 -6 10 -6 0z"/>
<path d="M1424 2474 c-18 -14 -18 -15 4 -4 12 6 22 13 22 15 0 8 -5 6 -26 -11z"/>
<path d="M4759 2460 c-3 -20 -4 -25 -13 -40 -7 -12 -6 -13 4 -3 13 12 25 53
15 53 -3 0 -6 -4 -6 -10z"/>
<path d="M1444 2379 c-3 -6 -2 -15 3 -20 5 -5 9 -1 9 11 0 23 -2 24 -12 9z"/>
<path d="M4655 2364 c-21 -17 -23 -22 -8 -14 12 5 25 15 28 20 3 6 11 10 16
10 6 0 7 -5 3 -12 -4 -7 -3 -8 5 -4 11 7 6 26 -7 26 -4 0 -20 -12 -37 -26z"/>
<path d="M1416 2367 c3 -10 9 -15 12 -12 3 3 0 11 -7 18 -10 9 -11 8 -5 -6z"/>
<path d="M1472 2364 c0 -11 0 -23 -2 -29 -5 -19 0 -33 13 -38 8 -3 14 1 14 9
0 7 -4 11 -8 8 -4 -2 -10 0 -14 6 -3 5 -2 10 4 10 5 0 8 10 6 21 -6 28 -14 36
-13 13z"/>
<path d="M4670 2339 c0 -5 5 -7 10 -4 6 3 10 8 10 11 0 2 -4 4 -10 4 -5 0 -10
-5 -10 -11z"/>
<path d="M1436 2321 c-3 -5 2 -15 12 -22 15 -12 16 -12 5 2 -7 9 -10 19 -6 22
3 4 4 7 0 7 -3 0 -8 -4 -11 -9z"/>
<path d="M4606 2312 c-3 -5 1 -9 9 -9 8 0 12 4 9 9 -3 4 -7 8 -9 8 -2 0 -6 -4
-9 -8z"/>
<path d="M4635 2289 c-4 -6 -5 -12 -2 -15 2 -3 7 2 10 11 7 17 1 20 -8 4z"/>
<path d="M1460 2280 c-12 -7 -10 -9 7 -7 12 0 19 5 17 9 -6 10 -6 10 -24 -2z"/>
<path d="M1435 2252 c1 -9 7 -28 12 -41 8 -19 11 -21 16 -8 3 9 0 18 -8 21 -8
3 -12 12 -9 20 3 8 1 16 -4 20 -5 3 -8 -3 -7 -12z"/>
<path d="M1395 2220 c-3 -5 -1 -10 4 -10 6 0 11 5 11 10 0 6 -2 10 -4 10 -3 0
-8 -4 -11 -10z"/>
<path d="M4530 2206 c0 -8 4 -17 9 -20 5 -4 7 3 4 14 -6 23 -13 26 -13 6z"/>
<path d="M4580 2206 c0 -2 8 -10 18 -17 15 -13 16 -12 3 4 -13 16 -21 21 -21
13z"/>
<path d="M1353 2185 c0 -8 4 -12 9 -9 5 3 6 10 3 15 -9 13 -12 11 -12 -6z"/>
<path d="M1388 2183 c7 -3 16 -2 19 1 4 3 -2 6 -13 5 -11 0 -14 -3 -6 -6z"/>
<path d="M1370 2160 c0 -5 -6 -10 -14 -10 -8 0 -18 -4 -21 -10 -10 -17 11 -11
36 10 13 10 18 19 12 20 -7 0 -13 -4 -13 -10z"/>
<path d="M1310 2150 c-9 -6 -10 -10 -3 -10 6 0 15 5 18 10 8 12 4 12 -15 0z"/>
<path d="M4480 2140 c-9 -6 -10 -10 -3 -10 6 0 15 5 18 10 8 12 4 12 -15 0z"/>
<path d="M1195 2131 c-3 -6 -11 -9 -16 -6 -5 4 -9 1 -9 -4 0 -13 10 -14 30 -1
8 5 12 12 8 15 -3 4 -9 1 -13 -4z"/>
<path d="M1106 2122 c-3 -5 1 -9 9 -9 8 0 12 4 9 9 -3 4 -7 8 -9 8 -2 0 -6 -4
-9 -8z"/>
<path d="M1250 2119 c0 -5 -4 -8 -8 -5 -4 2 -14 0 -22 -5 -11 -7 -9 -8 9 -6
21 3 45 27 27 27 -3 0 -6 -5 -6 -11z"/>
<path d="M4446 2122 c-3 -5 1 -9 9 -9 8 0 12 4 9 9 -3 4 -7 8 -9 8 -2 0 -6 -4
-9 -8z"/>
<path d="M4407 2109 c7 -7 15 -10 18 -7 3 3 -2 9 -12 12 -14 6 -15 5 -6 -5z"/>
<path d="M1150 2101 c0 -5 5 -13 10 -16 6 -3 10 -2 10 4 0 5 -4 13 -10 16 -5
3 -10 2 -10 -4z"/>
<path d="M873 2085 c0 -8 4 -12 9 -9 5 3 6 10 3 15 -9 13 -12 11 -12 -6z"/>
<path d="M1097 2087 c-3 -8 1 -14 8 -14 7 0 11 6 8 14 -3 7 -6 13 -8 13 -2 0
-5 -6 -8 -13z"/>
<path d="M930 2084 c0 -2 9 -8 20 -14 15 -8 18 -8 14 3 -4 11 -34 21 -34 11z"/>
<path d="M1055 2080 c3 -5 8 -10 11 -10 2 0 4 5 4 10 0 6 -5 10 -11 10 -5 0
-7 -4 -4 -10z"/>
<path d="M4359 2053 c-13 -16 -12 -17 4 -4 9 7 17 15 17 17 0 8 -8 3 -21 -13z"/>
<path d="M4415 2060 c3 -5 8 -10 11 -10 2 0 4 5 4 10 0 6 -5 10 -11 10 -5 0
-7 -4 -4 -10z"/>
<path d="M875 2050 c-4 -6 -11 -8 -16 -5 -5 4 -9 1 -9 -4 0 -16 16 -13 30 4 7
8 10 15 7 15 -3 0 -9 -5 -12 -10z"/>
<path d="M896 2045 c-3 -8 -1 -15 4 -15 6 0 10 7 10 15 0 8 -2 15 -4 15 -2 0
-6 -7 -10 -15z"/>
<path d="M4284 2028 c-3 -4 5 -5 17 -3 30 6 36 14 9 12 -12 -1 -24 -5 -26 -9z"/>
<path d="M4337 2015 c-4 -8 -3 -16 1 -19 4 -3 9 4 9 15 2 23 -3 25 -10 4z"/>
<path d="M4246 2001 c-3 -4 1 -17 10 -27 14 -18 15 -18 5 2 -6 12 -7 24 -4 28
3 3 4 6 0 6 -3 0 -8 -4 -11 -9z"/>
<path d="M759 1988 c-5 -18 -6 -38 -1 -34 7 8 12 36 6 36 -2 0 -4 -1 -5 -2z"/>
<path d="M4205 1971 c-9 -15 15 -25 28 -12 9 9 7 10 -7 5 -13 -5 -17 -4 -12 4
4 7 5 12 2 12 -3 0 -7 -4 -11 -9z"/>
<path d="M4235 1940 c-3 -5 -1 -10 4 -10 6 0 11 5 11 10 0 6 -2 10 -4 10 -3 0
-8 -4 -11 -10z"/>
<path d="M4110 1882 c0 -4 9 -8 19 -8 11 0 17 4 15 8 -3 4 -12 8 -20 8 -8 0
-14 -4 -14 -8z"/>
<path d="M4055 1870 c-3 -5 -5 -10 -3 -11 33 -8 38 -7 27 7 -14 17 -16 17 -24
4z"/>
<path d="M789 1857 c6 -8 7 -18 3 -22 -4 -5 -1 -5 6 -1 10 6 10 11 1 22 -6 8
-14 14 -16 14 -3 0 0 -6 6 -13z"/>
<path d="M4020 1840 c-8 -5 -10 -10 -5 -10 6 0 17 5 25 10 8 5 11 10 5 10 -5
0 -17 -5 -25 -10z"/>
<path d="M813 1810 c-1 -11 2 -20 7 -20 4 0 7 7 6 15 -3 23 -12 26 -13 5z"/>
<path d="M3918 1809 c-10 -5 -18 -15 -18 -20 0 -6 7 -3 16 5 17 18 39 22 29 6
-3 -6 1 -7 10 -3 13 5 14 7 3 14 -16 11 -19 11 -40 -2z"/>
<path d="M3875 1781 c-3 -6 -11 -8 -17 -5 -7 5 -8 2 -3 -6 6 -10 3 -12 -13 -8
-12 4 -25 1 -29 -4 -4 -7 -1 -8 7 -3 10 6 12 4 6 -11 -6 -15 -5 -17 5 -6 16
15 33 16 23 0 -4 -7 -3 -8 5 -4 6 4 9 11 6 16 -3 5 3 13 12 19 10 5 15 12 11
16 -3 3 -9 1 -13 -4z"/>
<path d="M3960 1780 c-12 -7 -10 -9 7 -7 12 0 19 5 17 9 -6 10 -6 10 -24 -2z"/>
<path d="M960 1751 c0 -7 -5 -9 -12 -5 -7 5 -8 3 -3 -5 5 -9 10 -10 18 -2 6 6
8 14 4 18 -4 3 -7 1 -7 -6z"/>
<path d="M996 1745 c-11 -8 -15 -15 -9 -15 6 0 16 7 23 15 16 19 11 19 -14 0z"/>
<path d="M1030 1740 c0 -5 5 -10 10 -10 6 0 10 5 10 10 0 6 -4 10 -10 10 -5 0
-10 -4 -10 -10z"/>
<path d="M3795 1709 c-4 -6 -5 -12 -2 -15 2 -3 7 2 10 11 7 17 1 20 -8 4z"/>
<path d="M1078 1703 c7 -3 16 -2 19 1 4 3 -2 6 -13 5 -11 0 -14 -3 -6 -6z"/>
<path d="M1230 1681 c0 -24 16 -36 26 -20 5 8 3 9 -6 4 -10 -6 -12 -3 -8 13 4
12 2 22 -3 22 -5 0 -9 -9 -9 -19z"/>
<path d="M1267 1679 c7 -7 15 -10 18 -7 3 3 -2 9 -12 12 -14 6 -15 5 -6 -5z"/>
<path d="M3612 1674 c2 -16 7 -19 27 -15 22 4 23 6 6 9 -11 2 -23 9 -27 16 -4
6 -6 2 -6 -10z"/>
<path d="M1303 1668 c-15 -25 -11 -36 11 -30 18 5 19 7 3 10 -14 3 -16 7 -6
18 6 8 9 14 6 14 -3 0 -9 -6 -14 -12z"/>
<path d="M3576 1671 c-4 -5 -2 -12 3 -15 5 -4 12 -2 15 3 4 5 2 12 -3 15 -5 4
-12 2 -15 -3z"/>
<path d="M1136 1653 c-6 -14 -5 -15 5 -6 7 7 10 15 7 18 -3 3 -9 -2 -12 -12z"/>
<path d="M1464 1630 c0 -13 4 -16 10 -10 7 7 7 13 0 20 -6 6 -10 3 -10 -10z"/>
<path d="M3501 1634 c0 -11 3 -14 6 -6 3 7 2 16 -1 19 -3 4 -6 -2 -5 -13z"/>
<path d="M3540 1646 c0 -2 7 -6 15 -10 8 -3 15 -1 15 4 0 6 -7 10 -15 10 -8 0
-15 -2 -15 -4z"/>
<path d="M1426 1625 c-18 -14 -18 -14 1 -12 11 0 20 7 20 14 0 7 -1 13 -1 13
-1 0 -9 -7 -20 -15z"/>
<path d="M3426 1615 c-9 -26 -7 -32 5 -12 6 10 9 21 6 23 -2 3 -7 -2 -11 -11z"/>
<path d="M1600 1613 c0 -19 14 -22 35 -7 10 8 14 14 8 14 -7 0 -15 -5 -19 -11
-4 -8 -9 -7 -15 2 -6 10 -9 10 -9 2z"/>
<path d="M1535 1600 c3 -5 8 -10 11 -10 2 0 4 5 4 10 0 6 -5 10 -11 10 -5 0
-7 -4 -4 -10z"/>
<path d="M1566 1602 c-3 -5 1 -9 9 -9 8 0 15 4 15 9 0 4 -4 8 -9 8 -6 0 -12
-4 -15 -8z"/>
<path d="M1660 1600 c0 -5 5 -10 11 -10 5 0 7 5 4 10 -3 6 -8 10 -11 10 -2 0
-4 -4 -4 -10z"/>
<path d="M1693 1595 c0 -8 4 -12 9 -9 5 3 6 10 3 15 -9 13 -12 11 -12 -6z"/>
<path d="M1763 1593 c-15 -5 -17 -23 -4 -23 5 0 11 7 15 15 3 8 4 15 3 14 -1
0 -8 -3 -14 -6z"/>
<path d="M3243 1575 c-3 -9 -3 -18 -1 -21 3 -3 8 4 11 16 6 23 -1 27 -10 5z"/>
<path d="M1900 1576 c0 -3 9 -10 20 -16 11 -6 20 -8 20 -6 0 3 -9 10 -20 16
-11 6 -20 8 -20 6z"/>
<path d="M3310 1571 c0 -6 4 -12 8 -15 5 -3 9 1 9 9 0 8 -4 15 -9 15 -4 0 -8
-4 -8 -9z"/>
<path d="M3350 1571 c0 -6 4 -13 10 -16 6 -3 7 1 4 9 -7 18 -14 21 -14 7z"/>
<path d="M1547 1559 c7 -7 15 -10 18 -7 3 3 -2 9 -12 12 -14 6 -15 5 -6 -5z"/>
<path d="M1840 1566 c0 -2 7 -7 16 -10 8 -3 12 -2 9 4 -6 10 -25 14 -25 6z"/>
<path d="M1981 1554 c0 -11 3 -14 6 -6 3 7 2 16 -1 19 -3 4 -6 -2 -5 -13z"/>
<path d="M2017 1557 c3 -4 10 -6 16 -4 18 6 48 -13 41 -25 -4 -7 -3 -8 4 -4
20 12 -7 42 -38 41 -16 0 -26 -4 -23 -8z"/>
<path d="M3110 1566 c0 -2 7 -7 16 -10 8 -3 12 -2 9 4 -6 10 -25 14 -25 6z"/>
<path d="M3410 1560 c0 -5 5 -10 11 -10 5 0 7 5 4 10 -3 6 -8 10 -11 10 -2 0
-4 -4 -4 -10z"/>
<path d="M2203 1550 c-13 -5 -23 -11 -23 -14 0 -7 40 6 46 15 6 10 6 10 -23
-1z"/>
<path d="M3020 1550 c-9 -6 -10 -10 -3 -10 6 0 15 5 18 10 8 12 4 12 -15 0z"/>
<path d="M2255 1540 c-3 -5 -1 -10 4 -10 6 0 11 5 11 10 0 6 -2 10 -4 10 -3 0
-8 -4 -11 -10z"/>
<path d="M2326 1537 c3 -10 9 -15 12 -12 3 3 0 11 -7 18 -10 9 -11 8 -5 -6z"/>
<path d="M2370 1541 c0 -6 4 -13 10 -16 6 -3 7 1 4 9 -7 18 -14 21 -14 7z"/>
<path d="M2420 1535 c-9 -11 -10 -19 -3 -26 8 -8 11 -6 10 7 -1 11 4 18 11 17
6 -2 12 2 12 7 0 15 -16 12 -30 -5z"/>
<path d="M2546 1526 c-12 -19 -13 -27 -3 -32 6 -4 9 -3 4 1 -4 5 0 17 10 27 9
10 14 20 11 23 -3 3 -13 -6 -22 -19z"/>
<path d="M2670 1537 c0 -5 6 -7 14 -4 7 3 19 0 25 -6 9 -9 11 -8 6 5 -7 17
-45 21 -45 5z"/>
<path d="M2831 1534 c6 -7 7 -19 3 -26 -5 -9 -2 -8 10 2 11 8 14 16 7 18 -6 2
-9 7 -7 11 3 4 -1 8 -9 8 -11 0 -12 -4 -4 -13z"/>
<path d="M2870 1540 c0 -5 5 -10 10 -10 6 0 10 5 10 10 0 6 -4 10 -10 10 -5 0
-10 -4 -10 -10z"/>
<path d="M3096 1541 c-3 -5 2 -15 12 -22 15 -12 16 -12 5 2 -7 9 -10 19 -6 22
3 4 4 7 0 7 -3 0 -8 -4 -11 -9z"/>
<path d="M3276 1538 c3 -4 11 -5 19 -1 21 7 19 12 -4 10 -11 0 -18 -5 -15 -9z"/>
<path d="M1936 1527 c3 -10 9 -15 12 -12 3 3 0 11 -7 18 -10 9 -11 8 -5 -6z"/>
<path d="M2135 1529 c-4 -6 -5 -12 -2 -15 2 -3 7 2 10 11 7 17 1 20 -8 4z"/>
<path d="M2230 1529 c0 -5 -6 -7 -12 -3 -7 4 -9 3 -5 -1 13 -15 36 -14 30 1
-6 17 -13 18 -13 3z"/>
<path d="M2285 1527 c-15 -12 -16 -15 -4 -22 8 -5 11 -5 7 0 -4 4 0 14 10 21
23 18 11 18 -13 1z"/>
<path d="M2581 1524 c0 -11 3 -14 6 -6 3 7 2 16 -1 19 -3 4 -6 -2 -5 -13z"/>
<path d="M2600 1526 c0 -2 8 -10 18 -17 15 -13 16 -12 3 4 -13 16 -21 21 -21
13z"/>
<path d="M2645 1520 c3 -5 8 -10 11 -10 2 0 4 5 4 10 0 6 -5 10 -11 10 -5 0
-7 -4 -4 -10z"/>
<path d="M3016 1519 c4 -8 30 -6 38 2 3 3 -5 5 -19 5 -13 0 -22 -3 -19 -7z"/>
</g>
</svg>
